<?xml version="1.0" encoding="UTF-8" standalone="no"?>
<!-- Generator: Adobe Illustrator 15.0.2, SVG Export Plug-In . SVG Version: 6.00 Build 0)  -->

<svg
   xmlns:dc="http://purl.org/dc/elements/1.1/"
   xmlns:cc="http://creativecommons.org/ns#"
   xmlns:rdf="http://www.w3.org/1999/02/22-rdf-syntax-ns#"
   xmlns:svg="http://www.w3.org/2000/svg"
   xmlns="http://www.w3.org/2000/svg"
   xmlns:sodipodi="http://sodipodi.sourceforge.net/DTD/sodipodi-0.dtd"
   xmlns:inkscape="http://www.inkscape.org/namespaces/inkscape"
   version="1.1"
   id="レイヤー_1"
   x="0px"
   y="0px"
   width="64px"
   height="64px"
   viewBox="0 0 64 64"
   enable-background="new 0 0 64 64"
   xml:space="preserve"
   inkscape:version="0.91 r13725"
   sodipodi:docname="anchor.svg"
   inkscape:export-filename="C:\Users\SmeV\Documents\ld36\images\anchor.png"
   inkscape:export-xdpi="83.752342"
   inkscape:export-ydpi="83.752342"><metadata
   id="metadata9128"><rdf:RDF><cc:Work
       rdf:about=""><dc:format>image/svg+xml</dc:format><dc:type
         rdf:resource="http://purl.org/dc/dcmitype/StillImage" /></cc:Work></rdf:RDF></metadata><defs
   id="defs9126">
	<linearGradient
   y2="50.7446"
   x2="42.4653"
   y1="29.3696"
   x1="22.4653"
   gradientUnits="userSpaceOnUse"
   id="SVGID_1_">
		<stop
   id="stop9089"
   style="stop-color:#C2C2C2"
   offset="0" />
		<stop
   id="stop9091"
   style="stop-color:#5F5C6E"
   offset="1" />
	</linearGradient>
	
	
	<linearGradient
   y2="46.5617"
   x2="38.2179"
   y1="18.9741"
   x1="26.4932"
   gradientUnits="userSpaceOnUse"
   id="SVGID_2_"
   gradientTransform="matrix(0.87511149,0,0,1,3.9687072,0)">
		<stop
   id="stop9098"
   style="stop-color:#363045"
   offset="0" />
		<stop
   id="stop9100"
   style="stop-color:#C2C2C2;stop-opacity:0"
   offset="1" />
	</linearGradient>
	
	<linearGradient
   y2="16.7762"
   x2="34.2376"
   y1="6.7754"
   x1="29.9873"
   gradientUnits="userSpaceOnUse"
   id="SVGID_3_">
		<stop
   id="stop9105"
   style="stop-color:#C2C2C2"
   offset="0" />
		<stop
   id="stop9107"
   style="stop-color:#5F5C6E"
   offset="1" />
	</linearGradient>
	
	<linearGradient
   y2="24.5771"
   x2="32.0083"
   y1="13.6563"
   x1="32.0083"
   gradientUnits="userSpaceOnUse"
   id="SVGID_4_">
		<stop
   id="stop9112"
   style="stop-color:#C2C2C2"
   offset="0" />
		<stop
   id="stop9114"
   style="stop-color:#5F5C6E"
   offset="1" />
	</linearGradient>
	
	
	
	
</defs><sodipodi:namedview
   pagecolor="#ffffff"
   bordercolor="#666666"
   borderopacity="1"
   objecttolerance="10"
   gridtolerance="10"
   guidetolerance="10"
   inkscape:pageopacity="0"
   inkscape:pageshadow="2"
   inkscape:window-width="1920"
   inkscape:window-height="1018"
   id="namedview9124"
   showgrid="false"
   inkscape:zoom="13.734375"
   inkscape:cx="32"
   inkscape:cy="32"
   inkscape:window-x="-8"
   inkscape:window-y="-8"
   inkscape:window-maximized="1"
   inkscape:current-layer="レイヤー_1" />
<path
   inkscape:connector-curvature="0"
   style="fill:url(#SVGID_1_);stroke:#000000;stroke-opacity:1"
   id="path9093"
   d="m 54.503,34.059 c 0.002,-0.009 0.004,-0.018 0.006,-0.027 0,0 -0.009,0.012 -0.01,0.014 -0.002,-0.005 -0.003,-0.01 -0.005,-0.014 l -0.018,0.043 c -0.33,0.439 -4.681,6.135 -9.968,7.457 0,0 2.514,5.507 -3.375,7.75 -2.417,0.92 -4.421,0.717 -5.935,-0.246 l -0.628,-34.004 -5.125,0 -0.64,34.011 C 27.293,50 25.292,50.2 22.882,49.282 c -5.889,-2.243 -3.375,-7.75 -3.375,-7.75 -5.5,-1.375 -10,-7.5 -10,-7.5 -2.25,5.5 2.125,13.347 2.125,13.347 l 3.327,0 -0.003,-0.008 c 5.139,6.97 11.903,8.859 13.739,9.286 2.688,0.625 3.313,1.875 3.313,1.875 l 0,0 c 0,0 0.625,-1.25 3.313,-1.875 1.835,-0.427 8.595,-2.314 13.733,-9.278 l 3.314,0 c 10e-4,-10e-4 4.36,-7.821 2.135,-13.32 z" /><rect
   style="fill:url(#SVGID_2_);stroke:none;stroke-opacity:1"
   id="rect9102"
   height="34.125"
   width="4.5917101"
   y="15.031"
   x="29.73724" /><path
   inkscape:connector-curvature="0"
   style="fill:url(#SVGID_3_);stroke:#000000;stroke-opacity:1"
   id="path9109"
   d="m 32.008,5.469 c -3.348,0 -6.063,2.714 -6.063,6.063 0,3.348 2.714,6.063 6.063,6.063 3.349,0 6.063,-2.715 6.063,-6.063 0,-3.349 -2.714,-6.063 -6.063,-6.063 z m 0,8.312 c -1.243,0 -2.25,-1.008 -2.25,-2.25 0,-1.243 1.007,-2.25 2.25,-2.25 1.243,0 2.25,1.007 2.25,2.25 10e-4,1.242 -1.007,2.25 -2.25,2.25 z" /><rect
   style="fill:url(#SVGID_4_);stroke:#000000;stroke-opacity:1"
   id="rect9116"
   height="3.25"
   width="38.25"
   y="19.906"
   x="12.883" /><polygon
   style="fill:#6f6e75;stroke:#000000;stroke-opacity:1"
   id="polygon9122"
   points="14.96,47.378 11.633,47.378 15.633,45.906 " />
<polygon
   transform="matrix(-1,0,0,1,64.007661,-0.68900785)"
   style="fill:#6f6e75;stroke:#000000;stroke-opacity:1"
   id="polygon9122-0"
   points="11.633,47.378 15.633,45.906 14.96,47.378 " /></svg>