<?xml version="1.0" encoding="UTF-8" standalone="no"?>
<!-- Created with Inkscape (http://www.inkscape.org/) -->

<svg
   xmlns:dc="http://purl.org/dc/elements/1.1/"
   xmlns:cc="http://creativecommons.org/ns#"
   xmlns:rdf="http://www.w3.org/1999/02/22-rdf-syntax-ns#"
   xmlns:svg="http://www.w3.org/2000/svg"
   xmlns="http://www.w3.org/2000/svg"
   xmlns:xlink="http://www.w3.org/1999/xlink"
   xmlns:sodipodi="http://sodipodi.sourceforge.net/DTD/sodipodi-0.dtd"
   xmlns:inkscape="http://www.inkscape.org/namespaces/inkscape"
   version="1.0"
   width="800"
   height="800"
   id="windrose"
   sodipodi:version="0.32"
   inkscape:version="0.91 r13725"
   sodipodi:docname="compass.svg"
   inkscape:output_extension="org.inkscape.output.svg.inkscape"
   inkscape:export-filename="C:\Users\SmeV\Documents\ld36\images\compass.png"
   inkscape:export-xdpi="90.029915"
   inkscape:export-ydpi="90.029915">
  <metadata
     id="metadata124">
    <rdf:RDF>
      <cc:Work
         rdf:about="">
        <dc:format>image/svg+xml</dc:format>
        <dc:type
           rdf:resource="http://purl.org/dc/dcmitype/StillImage" />
      </cc:Work>
    </rdf:RDF>
  </metadata>
  <sodipodi:namedview
     inkscape:window-height="1018"
     inkscape:window-width="1920"
     inkscape:pageshadow="2"
     inkscape:pageopacity="0.0"
     guidetolerance="10.0"
     gridtolerance="10.0"
     objecttolerance="10.0"
     borderopacity="1.0"
     bordercolor="#666666"
     pagecolor="#ffffff"
     id="base"
     inkscape:zoom="0.9425"
     inkscape:cx="337.46098"
     inkscape:cy="584.09531"
     inkscape:window-x="-8"
     inkscape:window-y="-8"
     inkscape:current-layer="windrose"
     showgrid="false"
     inkscape:window-maximized="1" />
  <defs
     id="defs4">
    <linearGradient
       id="linearGradient8323"
       inkscape:collect="always">
      <stop
         id="stop8325"
         offset="0"
         style="stop-color:#2a1f15;stop-opacity:1" />
      <stop
         id="stop8327"
         offset="1"
         style="stop-color:#826e5a;stop-opacity:1" />
    </linearGradient>
    <linearGradient
       id="linearGradient8277"
       inkscape:collect="always">
      <stop
         id="stop8279"
         offset="0"
         style="stop-color:#ffffff;stop-opacity:1" />
      <stop
         id="stop8281"
         offset="1"
         style="stop-color:#f5e41a;stop-opacity:1" />
    </linearGradient>
    <radialGradient
       inkscape:collect="always"
       xlink:href="#linearGradient8277"
       id="radialGradient8267"
       cx="403.18301"
       cy="401.00949"
       fx="403.18301"
       fy="401.00949"
       r="406.80505"
       gradientTransform="matrix(1.7434586,0.02589566,-0.01201805,0.80913106,-294.93046,66.099539)"
       gradientUnits="userSpaceOnUse" />
    <radialGradient
       inkscape:collect="always"
       xlink:href="#linearGradient8277"
       id="radialGradient8275"
       cx="400"
       cy="400"
       fx="400"
       fy="400"
       r="233.6875"
       gradientUnits="userSpaceOnUse"
       gradientTransform="matrix(1.826332,-0.02724185,0.0149145,0.99988877,-336.49858,10.941231)" />
    <radialGradient
       inkscape:collect="always"
       xlink:href="#linearGradient8277"
       id="radialGradient8289"
       cx="404.77454"
       cy="401.061"
       fx="404.77454"
       fy="401.061"
       r="27.494694"
       gradientTransform="matrix(0.99760199,-0.06921183,0.03858955,0.55622017,-14.50611,205.99797)"
       gradientUnits="userSpaceOnUse" />
    <linearGradient
       inkscape:collect="always"
       xlink:href="#linearGradient8323"
       id="linearGradient8297"
       x1="359.75759"
       y1="238.10332"
       x2="363.11069"
       y2="137.30756"
       gradientUnits="userSpaceOnUse" />
    <linearGradient
       gradientTransform="matrix(1,0,0,-1,-0.16093515,806.80359)"
       inkscape:collect="always"
       xlink:href="#linearGradient8323"
       id="linearGradient8297-5"
       x1="359.7576"
       y1="238.10332"
       x2="363.11069"
       y2="137.30756"
       gradientUnits="userSpaceOnUse" />
    <radialGradient
       inkscape:collect="always"
       xlink:href="#linearGradient8277"
       id="radialGradient8535"
       gradientUnits="userSpaceOnUse"
       gradientTransform="matrix(1.826332,-0.02724185,0.0149145,0.99988877,-336.49858,10.941231)"
       cx="400"
       cy="400"
       fx="400"
       fy="400"
       r="233.6875" />
  </defs>
  <g
     id="g8429"
     transform="matrix(0.61434081,0,0,0.63776061,-1.3139998,-205.74806)">
    <ellipse
       ry="389.73157"
       rx="404.99789"
       cy="401.00949"
       cx="403.18301"
       id="path7206-0"
       style="fill:url(#radialGradient8267);fill-opacity:1;stroke:#dbdb07;stroke-width:3.61429167;stroke-linecap:round;stroke-linejoin:round;stroke-miterlimit:4;stroke-dasharray:none;stroke-dashoffset:0;stroke-opacity:0.94117647" />
    <ellipse
       ry="352.12189"
       rx="365.91498"
       cy="396.81699"
       cx="401.061"
       id="path7206"
       style="fill:#f5c889;fill-opacity:1;stroke:#00000f;stroke-width:3.26550722;stroke-linecap:round;stroke-linejoin:round;stroke-miterlimit:4;stroke-dasharray:none;stroke-dashoffset:0;stroke-opacity:0.94117647" />
    <path
       inkscape:connector-curvature="0"
       d="m 700,400 a 300,300 0 0 1 -600,0 300,300 0 1 1 600,0 z"
       style="fill:none;stroke:#000000"
       id="kreis" />
    <path
       inkscape:connector-curvature="0"
       d="m 612,188 28,-28"
       style="fill:none;stroke:#000000;stroke-width:2"
       id="linie045" />
    <path
       inkscape:connector-curvature="0"
       d="m 740,400 -40,0"
       style="fill:none;stroke:#000000;stroke-width:2"
       id="linie090" />
    <path
       inkscape:connector-curvature="0"
       d="m 612,612 28,28"
       style="fill:none;stroke:#000000;stroke-width:2"
       id="linie135" />
    <path
       inkscape:connector-curvature="0"
       d="m 400,740 0,-40"
       style="fill:none;stroke:#000000;stroke-width:2"
       id="linie180" />
    <path
       inkscape:connector-curvature="0"
       d="m 188,612 -28,28"
       style="fill:none;stroke:#000000;stroke-width:2"
       id="linie225" />
    <path
       inkscape:connector-curvature="0"
       d="m 60,400 40,0"
       style="fill:none;stroke:#000000;stroke-width:2"
       id="linie270" />
    <path
       inkscape:connector-curvature="0"
       d="M 188,188 160,160"
       style="fill:none;stroke:#000000;stroke-width:2"
       id="linie315" />
    <path
       inkscape:connector-curvature="0"
       d="m 400,60 0,40"
       style="fill:none;stroke:#000000;stroke-width:2"
       id="linie360" />
    <path
       inkscape:connector-curvature="0"
       d="m 426,101 2,-20"
       style="fill:none;stroke:#000000;stroke-width:1;stroke-opacity:1"
       id="linie005" />
    <path
       inkscape:connector-curvature="0"
       d="m 452,105 4,-20"
       style="fill:none;stroke:#000000;stroke-width:1;stroke-opacity:1"
       id="linie010" />
    <path
       inkscape:connector-curvature="0"
       d="m 478,110 5,-19"
       style="fill:none;stroke:#000000;stroke-width:1;stroke-opacity:1"
       id="linie015" />
    <path
       inkscape:connector-curvature="0"
       d="m 503,118 6,-19"
       style="fill:none;stroke:#000000;stroke-width:1;stroke-opacity:1"
       id="linie020" />
    <path
       inkscape:connector-curvature="0"
       d="m 527,128 8,-18"
       style="fill:none;stroke:#000000;stroke-width:1;stroke-opacity:1"
       id="linie025" />
    <path
       inkscape:connector-curvature="0"
       d="m 550,140 10,-17"
       style="fill:none;stroke:#000000;stroke-width:1;stroke-opacity:1"
       id="linie030" />
    <path
       inkscape:connector-curvature="0"
       d="m 572,154 12,-16"
       style="fill:none;stroke:#000000;stroke-width:1;stroke-opacity:1"
       id="linie035" />
    <path
       inkscape:connector-curvature="0"
       d="m 593,170 13,-15"
       style="fill:none;stroke:#000000;stroke-width:1;stroke-opacity:1"
       id="linie040" />
    <path
       inkscape:connector-curvature="0"
       d="m 630,207 15,-13"
       style="fill:none;stroke:#000000;stroke-width:1;stroke-opacity:1"
       id="linie050" />
    <path
       inkscape:connector-curvature="0"
       d="m 646,228 16,-12"
       style="fill:none;stroke:#000000;stroke-width:1;stroke-opacity:1"
       id="linie055" />
    <path
       inkscape:connector-curvature="0"
       d="m 660,250 17,-10"
       style="fill:none;stroke:#000000;stroke-width:1;stroke-opacity:1"
       id="linie060" />
    <path
       inkscape:connector-curvature="0"
       d="m 672,273 18,-8"
       style="fill:none;stroke:#000000;stroke-width:1;stroke-opacity:1"
       id="linie065" />
    <path
       inkscape:connector-curvature="0"
       d="m 682,297 19,-6"
       style="fill:none;stroke:#000000;stroke-width:1;stroke-opacity:1"
       id="linie070" />
    <path
       inkscape:connector-curvature="0"
       d="m 690,322 19,-5"
       style="fill:none;stroke:#000000;stroke-width:1;stroke-opacity:1"
       id="linie075" />
    <path
       inkscape:connector-curvature="0"
       d="m 695,348 20,-4"
       style="fill:none;stroke:#000000;stroke-width:1;stroke-opacity:1"
       id="linie080" />
    <path
       inkscape:connector-curvature="0"
       d="m 699,374 20,-2"
       style="fill:none;stroke:#000000;stroke-width:1;stroke-opacity:1"
       id="linie085" />
    <path
       inkscape:connector-curvature="0"
       d="m 699,426 20,2"
       style="fill:none;stroke:#000000;stroke-width:1;stroke-opacity:1"
       id="linie095" />
    <path
       inkscape:connector-curvature="0"
       d="m 695,452 20,4"
       style="fill:none;stroke:#000000;stroke-width:1;stroke-opacity:1"
       id="linie100" />
    <path
       inkscape:connector-curvature="0"
       d="m 690,478 19,5"
       style="fill:none;stroke:#000000;stroke-width:1;stroke-opacity:1"
       id="linie105" />
    <path
       inkscape:connector-curvature="0"
       d="m 682,503 19,6"
       style="fill:none;stroke:#000000;stroke-width:1;stroke-opacity:1"
       id="linie110" />
    <path
       inkscape:connector-curvature="0"
       d="m 672,527 18,8"
       style="fill:none;stroke:#000000;stroke-width:1;stroke-opacity:1"
       id="linie115" />
    <path
       inkscape:connector-curvature="0"
       d="m 660,550 17,10"
       style="fill:none;stroke:#000000;stroke-width:1;stroke-opacity:1"
       id="linie120" />
    <path
       inkscape:connector-curvature="0"
       d="m 646,572 16,12"
       style="fill:none;stroke:#000000;stroke-width:1;stroke-opacity:1"
       id="linie125" />
    <path
       inkscape:connector-curvature="0"
       d="m 630,593 15,13"
       style="fill:none;stroke:#000000;stroke-width:1;stroke-opacity:1"
       id="linie130" />
    <path
       inkscape:connector-curvature="0"
       d="m 593,630 13,15"
       style="fill:none;stroke:#000000;stroke-width:1;stroke-opacity:1"
       id="linie140" />
    <path
       inkscape:connector-curvature="0"
       d="m 572,646 12,16"
       style="fill:none;stroke:#000000;stroke-width:1;stroke-opacity:1"
       id="linie145" />
    <path
       inkscape:connector-curvature="0"
       d="m 550,660 10,17"
       style="fill:none;stroke:#000000;stroke-width:1;stroke-opacity:1"
       id="linie150" />
    <path
       inkscape:connector-curvature="0"
       d="m 527,672 8,18"
       style="fill:none;stroke:#000000;stroke-width:1;stroke-opacity:1"
       id="linie155" />
    <path
       inkscape:connector-curvature="0"
       d="m 503,682 6,19"
       style="fill:none;stroke:#000000;stroke-width:1;stroke-opacity:1"
       id="linie160" />
    <path
       inkscape:connector-curvature="0"
       d="m 478,690 5,19"
       style="fill:none;stroke:#000000;stroke-width:1;stroke-opacity:1"
       id="linie165" />
    <path
       inkscape:connector-curvature="0"
       d="m 452,695 4,20"
       style="fill:none;stroke:#000000;stroke-width:1;stroke-opacity:1"
       id="linie170" />
    <path
       inkscape:connector-curvature="0"
       d="m 426,699 2,20"
       style="fill:none;stroke:#000000;stroke-width:1;stroke-opacity:1"
       id="linie175" />
    <path
       inkscape:connector-curvature="0"
       d="m 374,699 -2,20"
       style="fill:none;stroke:#000000;stroke-width:1;stroke-opacity:1"
       id="linie185" />
    <path
       inkscape:connector-curvature="0"
       d="m 348,695 -4,20"
       style="fill:none;stroke:#000000;stroke-width:1;stroke-opacity:1"
       id="linie190" />
    <path
       inkscape:connector-curvature="0"
       d="m 322,690 -5,19"
       style="fill:none;stroke:#000000;stroke-width:1;stroke-opacity:1"
       id="linie195" />
    <path
       inkscape:connector-curvature="0"
       d="m 297,682 -6,19"
       style="fill:none;stroke:#000000;stroke-width:1;stroke-opacity:1"
       id="linie200" />
    <path
       inkscape:connector-curvature="0"
       d="m 273,672 -8,18"
       style="fill:none;stroke:#000000;stroke-width:1;stroke-opacity:1"
       id="linie205" />
    <path
       inkscape:connector-curvature="0"
       d="m 250,660 -10,17"
       style="fill:none;stroke:#000000;stroke-width:1;stroke-opacity:1"
       id="linie210" />
    <path
       inkscape:connector-curvature="0"
       d="m 228,646 -12,16"
       style="fill:none;stroke:#000000;stroke-width:1;stroke-opacity:1"
       id="linie215" />
    <path
       inkscape:connector-curvature="0"
       d="m 207,630 -13,15"
       style="fill:none;stroke:#000000;stroke-width:1;stroke-opacity:1"
       id="linie220" />
    <path
       inkscape:connector-curvature="0"
       d="m 170,593 -15,13"
       style="fill:none;stroke:#000000;stroke-width:1;stroke-opacity:1"
       id="linie230" />
    <path
       inkscape:connector-curvature="0"
       d="m 154,572 -16,12"
       style="fill:none;stroke:#000000;stroke-width:1;stroke-opacity:1"
       id="linie235" />
    <path
       inkscape:connector-curvature="0"
       d="m 140,550 -17,10"
       style="fill:none;stroke:#000000;stroke-width:1;stroke-opacity:1"
       id="linie240" />
    <path
       inkscape:connector-curvature="0"
       d="m 128,527 -18,8"
       style="fill:none;stroke:#000000;stroke-width:1;stroke-opacity:1"
       id="linie245" />
    <path
       inkscape:connector-curvature="0"
       d="m 118,503 -19,6"
       style="fill:none;stroke:#000000;stroke-width:1;stroke-opacity:1"
       id="linie250" />
    <path
       inkscape:connector-curvature="0"
       d="m 110,478 -19,5"
       style="fill:none;stroke:#000000;stroke-width:1;stroke-opacity:1"
       id="linie255" />
    <path
       inkscape:connector-curvature="0"
       d="m 105,452 -20,4"
       style="fill:none;stroke:#000000;stroke-width:1;stroke-opacity:1"
       id="linie260" />
    <path
       inkscape:connector-curvature="0"
       d="m 101,426 -20,2"
       style="fill:none;stroke:#000000;stroke-width:1;stroke-opacity:1"
       id="linie265" />
    <path
       inkscape:connector-curvature="0"
       d="M 101,374 81,372"
       style="fill:none;stroke:#000000;stroke-width:1;stroke-opacity:1"
       id="linie275" />
    <path
       inkscape:connector-curvature="0"
       d="M 105,348 85,344"
       style="fill:none;stroke:#000000;stroke-width:1;stroke-opacity:1"
       id="linie280" />
    <path
       inkscape:connector-curvature="0"
       d="M 110,322 91,317"
       style="fill:none;stroke:#000000;stroke-width:1;stroke-opacity:1"
       id="linie285" />
    <path
       inkscape:connector-curvature="0"
       d="M 118,297 99,291"
       style="fill:none;stroke:#000000;stroke-width:1;stroke-opacity:1"
       id="linie290" />
    <path
       inkscape:connector-curvature="0"
       d="m 128,273 -18,-8"
       style="fill:none;stroke:#000000;stroke-width:1;stroke-opacity:1"
       id="linie295" />
    <path
       inkscape:connector-curvature="0"
       d="M 140,250 123,240"
       style="fill:none;stroke:#000000;stroke-width:1;stroke-opacity:1"
       id="linie300" />
    <path
       inkscape:connector-curvature="0"
       d="M 154,228 138,216"
       style="fill:none;stroke:#000000;stroke-width:1;stroke-opacity:1"
       id="linie305" />
    <path
       inkscape:connector-curvature="0"
       d="M 170,207 155,194"
       style="fill:none;stroke:#000000;stroke-width:1;stroke-opacity:1"
       id="linie310" />
    <path
       inkscape:connector-curvature="0"
       d="M 207,170 194,155"
       style="fill:none;stroke:#000000;stroke-width:1;stroke-opacity:1"
       id="linie320" />
    <path
       inkscape:connector-curvature="0"
       d="M 228,154 216,138"
       style="fill:none;stroke:#000000;stroke-width:1;stroke-opacity:1"
       id="linie325" />
    <path
       inkscape:connector-curvature="0"
       d="M 250,140 240,123"
       style="fill:none;stroke:#000000;stroke-width:1;stroke-opacity:1"
       id="linie330" />
    <path
       inkscape:connector-curvature="0"
       d="m 273,128 -8,-18"
       style="fill:none;stroke:#000000;stroke-width:1;stroke-opacity:1"
       id="linie335" />
    <path
       inkscape:connector-curvature="0"
       d="M 297,118 291,99"
       style="fill:none;stroke:#000000;stroke-width:1;stroke-opacity:1"
       id="linie340" />
    <path
       inkscape:connector-curvature="0"
       d="M 322,110 317,91"
       style="fill:none;stroke:#000000;stroke-width:1;stroke-opacity:1"
       id="linie345" />
    <path
       inkscape:connector-curvature="0"
       d="M 348,105 344,85"
       style="fill:none;stroke:#000000;stroke-width:1;stroke-opacity:1"
       id="linie350" />
    <path
       inkscape:connector-curvature="0"
       d="M 374,101 372,81"
       style="fill:none;stroke:#000000;stroke-width:1;stroke-opacity:1"
       id="linie355" />
    <path
       d="m 400,400 0,-65 155,-90 -155,155 z"
       style="fill:#000000;stroke:#000000;stroke-width:1"
       id="pfeil-rechtsoben-oben"
       inkscape:connector-curvature="0" />
    <path
       d="m 400,400 65,0 90,-155 -155,155 z"
       style="fill:#fab37e;fill-opacity:0;fill-rule:evenodd;stroke:#000000;stroke-width:1px;stroke-linecap:butt;stroke-linejoin:miter;stroke-opacity:1"
       id="pfeil-rechtsoben-rechts"
       inkscape:connector-curvature="0" />
    <path
       d="m 400,400 65,0 90,155 -155,-155 z"
       style="fill:#000000;stroke:#000000;stroke-width:1"
       id="pfeil-rechtsunten-rechts"
       inkscape:connector-curvature="0" />
    <path
       d="m 400,400 0,65 155,90 -155,-155 z"
       style="fill:#fab37e;fill-opacity:0;stroke:#000000;stroke-width:1"
       id="pfeil-rechtsunten-unten"
       inkscape:connector-curvature="0" />
    <path
       d="m 400,400 0,65 -155,90 155,-155 z"
       style="fill:#000000;stroke:#000000;stroke-width:1"
       id="pfeil-linksunten-unten"
       inkscape:connector-curvature="0" />
    <path
       d="m 400,400 -65,0 -90,155 155,-155 z"
       style="fill:#fab37e;fill-opacity:0;stroke:#000000;stroke-width:1"
       id="pfeil-linksunten-links"
       inkscape:connector-curvature="0" />
    <path
       d="m 400,400 -65,0 -90,-155 155,155 z"
       style="fill:#000000;stroke:#000000;stroke-width:1"
       id="pfeil-linksoben-links"
       inkscape:connector-curvature="0" />
    <path
       d="m 400,400 0,-65 -155,-90 155,155 z"
       style="fill:#fab37e;fill-opacity:0;stroke:#000000;stroke-width:1"
       id="pfeil-linksoben-oben"
       inkscape:connector-curvature="0" />
    <path
       d="m 400,100 -45,255 45,45 0,-300 z"
       style="fill:#000000;stroke:#000000;stroke-width:1"
       id="pfeil-oben-links"
       inkscape:connector-curvature="0" />
    <path
       d="m 400,100 45,255 -45,45 0,-300 z"
       style="fill:#fab37e;fill-opacity:0;stroke:#000000;stroke-width:1"
       id="pfeil-oben-rechts"
       inkscape:connector-curvature="0" />
    <path
       d="m 700,400 -255,-45 -45,45 300,0 z"
       style="fill:#000000;stroke:#000000;stroke-width:1"
       id="pfeil-rechts-oben"
       inkscape:connector-curvature="0" />
    <path
       d="m 700,400 -255,45 -45,-45 300,0 z"
       style="fill:#fab37e;fill-opacity:0;stroke:#000000;stroke-width:1"
       id="pfeil-rechts-unten"
       inkscape:connector-curvature="0" />
    <path
       d="m 400,700 45,-255 -45,-45 0,300 z"
       style="fill:#000000;stroke:#000000;stroke-width:1"
       id="pfeil-unten-rechts"
       inkscape:connector-curvature="0" />
    <path
       d="m 400,700 -45,-255 45,-45 0,300 z"
       style="fill:#fab37e;fill-opacity:0;stroke:#000000;stroke-width:1"
       id="pfeil-unten-links"
       inkscape:connector-curvature="0" />
    <path
       d="m 100,400 255,45 45,-45 -300,0 z"
       style="fill:#000000;stroke:#000000;stroke-width:1"
       id="pfeil-links-unten"
       inkscape:connector-curvature="0" />
    <path
       d="m 100,400 255,-45 45,45 -300,0 z"
       style="fill:#fab37e;fill-opacity:0;stroke:#000000;stroke-width:1"
       id="pfeil-links-oben"
       inkscape:connector-curvature="0" />
    <g
       style="fill:url(#radialGradient8275);fill-opacity:1"
       id="rotekreisebene">
      <path
         id="kreisinnen"
         style="fill:url(#radialGradient8535);fill-opacity:1;stroke:none;stroke-opacity:1"
         d="m 424.78125,166.3125 5.125,30.875 c 33.24974,4.86578 63.90149,17.72876 89.96875,36.5625 l 25.21875,-18.5625 c -33.85398,-26.6192 -75.18503,-44.14017 -120.3125,-48.875 z m -52.875,0.375 C 326.92279,172.05589 285.8137,190.13949 252.3125,217.25 l 25.46875,18.21875 c 25.81448,-19.21284 56.2745,-32.5081 89.40625,-37.84375 l 4.71875,-30.9375 z m 210.84375,85.625 -18.21875,25.46875 c 19.21284,25.81448 32.5081,56.2745 37.84375,89.40625 l 30.9375,4.71875 C 627.94411,326.92279 609.86051,285.8137 582.75,252.3125 Z m -367.5625,2.59375 c -26.6192,33.85398 -44.14017,75.18503 -48.875,120.3125 l 30.875,-5.125 c 4.86578,-33.24974 17.72876,-63.90149 36.5625,-89.96875 l -18.5625,-25.21875 z m 418.5,169.875 -30.875,5.125 c -4.86578,33.24974 -17.72876,63.90149 -36.5625,89.96875 l 18.5625,25.21875 c 26.6192,-33.85398 44.14017,-75.18503 48.875,-120.3125 z m -467,3.3125 c 5.36839,44.98346 23.45199,86.09255 50.5625,119.59375 l 18.21875,-25.46875 C 216.25591,496.40427 202.96065,465.94425 197.625,432.8125 l -30.9375,-4.71875 z m 355.53125,136.4375 c -25.81448,19.21284 -56.2745,32.5081 -89.40625,37.84375 l -4.71875,30.9375 C 473.07721,627.94411 514.1863,609.86051 547.6875,582.75 L 522.21875,564.53125 Z M 280.125,566.25 254.90625,584.8125 c 33.85398,26.6192 75.18503,44.14017 120.3125,48.875 l -5.125,-30.875 C 336.84401,597.94672 306.19226,585.08374 280.125,566.25 Z"
         inkscape:connector-curvature="0" />
    </g>
    <path
       sodipodi:nodetypes="ccscsccc"
       inkscape:connector-curvature="0"
       id="path7550"
       d="m 389.38992,386.2069 -5.30504,-163.39523 c 0,0 -16.24019,-8.29967 -22.28117,-19.09814 C 353.30867,188.52834 400,90.185676 400,90.185676 c 0,0 50.25342,100.702604 45.62334,111.405834 -5.2708,12.18438 -26.5252,22.28117 -26.5252,22.28117 l -1.061,163.39522 z"
       style="fill:url(#linearGradient8297);fill-opacity:1;fill-rule:evenodd;stroke:#000000;stroke-width:2;stroke-linecap:butt;stroke-linejoin:miter;stroke-miterlimit:4;stroke-dasharray:none;stroke-opacity:1" />
    <path
       sodipodi:nodetypes="ccscsccc"
       inkscape:connector-curvature="0"
       id="path7550-5"
       d="m 389.22898,420.59668 -5.30504,163.39523 c 0,0 -16.24019,8.29967 -22.28117,19.09814 -8.49504,15.18519 38.19629,113.52786 38.19629,113.52786 0,0 50.25342,-100.70261 45.62334,-111.40584 -5.2708,-12.18438 -26.5252,-22.28117 -26.5252,-22.28117 l -1.061,-163.39522 z"
       style="fill:url(#linearGradient8297-5);fill-opacity:1;fill-rule:evenodd;stroke:#000000;stroke-width:2;stroke-linecap:butt;stroke-linejoin:miter;stroke-miterlimit:4;stroke-dasharray:none;stroke-opacity:1" />
    <ellipse
       ry="24.008635"
       rx="25.600145"
       cy="401.061"
       cx="404.77454"
       id="path7353"
       style="fill:url(#radialGradient8289);fill-opacity:1;stroke:#00000f;stroke-width:3.78909802;stroke-linecap:round;stroke-linejoin:round;stroke-miterlimit:4;stroke-dasharray:none;stroke-dashoffset:0;stroke-opacity:0.94117647" />
    <flowRoot
       transform="translate(814.85411,-125.19894)"
       style="font-style:normal;font-weight:normal;font-size:40px;line-height:125%;font-family:sans-serif;text-align:center;letter-spacing:0px;word-spacing:0px;text-anchor:middle;fill:#f5ec1a;fill-opacity:1;stroke:none;stroke-width:1px;stroke-linecap:butt;stroke-linejoin:miter;stroke-opacity:1"
       id="flowRoot7663"
       xml:space="preserve"><flowRegion
         id="flowRegion7665"><rect
           style="fill:#f5ec1a;fill-opacity:1"
           y="269.49603"
           x="-461.53845"
           height="77.453583"
           width="96.551727"
           id="rect7667" /></flowRegion><flowPara
         style="font-style:normal;font-variant:normal;font-weight:normal;font-stretch:normal;font-size:60px;font-family:FrankRuehl;-inkscape-font-specification:FrankRuehl;fill:#f5ec1a;fill-opacity:1"
         id="flowPara7669">N</flowPara></flowRoot>    <flowRoot
       transform="translate(813.97564,318.68084)"
       style="font-style:normal;font-weight:normal;font-size:40px;line-height:125%;font-family:sans-serif;text-align:center;letter-spacing:0px;word-spacing:0px;text-anchor:middle;fill:#f5ec1a;fill-opacity:1;stroke:none;stroke-width:1px;stroke-linecap:butt;stroke-linejoin:miter;stroke-opacity:1"
       id="flowRoot7663-8"
       xml:space="preserve"><flowRegion
         id="flowRegion7665-1"><rect
           style="fill:#f5ec1a;fill-opacity:1"
           y="269.49603"
           x="-461.53845"
           height="77.453583"
           width="96.551727"
           id="rect7667-3" /></flowRegion><flowPara
         style="font-style:normal;font-variant:normal;font-weight:normal;font-stretch:normal;font-size:60px;font-family:FrankRuehl;-inkscape-font-specification:FrankRuehl;fill:#f5ec1a;fill-opacity:1"
         id="flowPara7669-1">S</flowPara></flowRoot>  </g>
</svg>
