<?xml version="1.0" encoding="UTF-8" standalone="no"?>
<!-- Created with Inkscape (http://www.inkscape.org/) -->

<svg
   xmlns:dc="http://purl.org/dc/elements/1.1/"
   xmlns:cc="http://creativecommons.org/ns#"
   xmlns:rdf="http://www.w3.org/1999/02/22-rdf-syntax-ns#"
   xmlns:svg="http://www.w3.org/2000/svg"
   xmlns="http://www.w3.org/2000/svg"
   xmlns:xlink="http://www.w3.org/1999/xlink"
   xmlns:sodipodi="http://sodipodi.sourceforge.net/DTD/sodipodi-0.dtd"
   xmlns:inkscape="http://www.inkscape.org/namespaces/inkscape"
   width="1280mm"
   height="720mm"
   viewBox="0 0 4535.4331 2551.181"
   id="svg4186"
   version="1.1"
   inkscape:version="0.91 r13725"
   sodipodi:docname="title.svg"
   inkscape:export-filename="/home/seb/work/ld36/images/title.png"
   inkscape:export-xdpi="25.4"
   inkscape:export-ydpi="25.4">
  <defs
     id="defs4188">
    <inkscape:path-effect
       is_visible="true"
       id="path-effect5357"
       effect="spiro" />
    <inkscape:path-effect
       is_visible="true"
       id="path-effect5353"
       effect="spiro" />
    <inkscape:path-effect
       effect="spiro"
       id="path-effect5349"
       is_visible="true" />
    <linearGradient
       id="linearGradient5001"
       inkscape:collect="always">
      <stop
         id="stop5003"
         offset="0"
         style="stop-color:#0000e9;stop-opacity:1;" />
      <stop
         id="stop5005"
         offset="1"
         style="stop-color:#ffffff;stop-opacity:1" />
    </linearGradient>
    <linearGradient
       id="linearGradient4961"
       inkscape:collect="always">
      <stop
         id="stop4963"
         offset="0"
         style="stop-color:#b20013;stop-opacity:1" />
      <stop
         id="stop4965"
         offset="1"
         style="stop-color:#000000;stop-opacity:0" />
    </linearGradient>
    <linearGradient
       gradientUnits="userSpaceOnUse"
       y2="229.28311"
       x2="213.30952"
       y1="215.35454"
       x1="223.70361"
       id="linearGradient4967"
       xlink:href="#linearGradient4961"
       inkscape:collect="always"
       gradientTransform="translate(-1741.2505,-464.03883)" />
    <linearGradient
       gradientTransform="translate(-1733.7505,-467.9674)"
       gradientUnits="userSpaceOnUse"
       y2="440.79428"
       x2="190.03105"
       y1="440.79428"
       x1="133.55693"
       id="linearGradient5009"
       xlink:href="#linearGradient5001"
       inkscape:collect="always" />
    <linearGradient
       gradientUnits="userSpaceOnUse"
       y2="440.79428"
       x2="190.03105"
       y1="456.13052"
       x1="138.29539"
       id="linearGradient5009-0"
       xlink:href="#linearGradient5001"
       inkscape:collect="always"
       gradientTransform="matrix(-0.96544545,0.26060523,-0.26060523,-0.96544545,-1224.5606,373.48316)" />
    <linearGradient
       gradientUnits="userSpaceOnUse"
       y2="440.79428"
       x2="190.03105"
       y1="456.13052"
       x1="138.29539"
       id="linearGradient5009-0-3"
       xlink:href="#linearGradient5001"
       inkscape:collect="always"
       gradientTransform="matrix(0.9997247,0.02346329,-0.02346329,0.9997247,-1555.4175,-464.58755)" />
    <linearGradient
       inkscape:collect="always"
       id="linearGradient6463">
      <stop
         style="stop-color:#000000;stop-opacity:1;"
         offset="0"
         id="stop6473" />
      <stop
         style="stop-color:#78632a;stop-opacity:0"
         offset="1"
         id="stop6475" />
    </linearGradient>
    <linearGradient
       id="linearGradient6377"
       inkscape:collect="always">
      <stop
         id="stop6379"
         offset="0"
         style="stop-color:#00d200;stop-opacity:1;" />
      <stop
         id="stop6381"
         offset="1"
         style="stop-color:#00d200;stop-opacity:0;" />
    </linearGradient>
    <linearGradient
       inkscape:collect="always"
       id="linearGradient9202">
      <stop
         style="stop-color:#d4d400;stop-opacity:1"
         offset="0"
         id="stop9206" />
      <stop
         style="stop-color:#ffffff;stop-opacity:0"
         offset="1"
         id="stop9204" />
    </linearGradient>
    <linearGradient
       id="linearGradient5353"
       inkscape:collect="always">
      <stop
         style="stop-color:#ffffff;stop-opacity:1"
         offset="0"
         id="stop5357" />
      <stop
         style="stop-color:#d4d400;stop-opacity:1"
         offset="1"
         id="stop5355" />
    </linearGradient>
    <radialGradient
       gradientUnits="userSpaceOnUse"
       gradientTransform="matrix(0.72345544,-0.01843551,0.01438187,0.56438153,47.895422,147.71401)"
       r="67.371398"
       fy="331.0322"
       fx="190.40797"
       cy="331.0322"
       cx="190.40797"
       id="radialGradient5359"
       xlink:href="#linearGradient5353"
       inkscape:collect="always" />
    <radialGradient
       gradientUnits="userSpaceOnUse"
       gradientTransform="matrix(1.4340763,-0.04838222,-0.0064765,1.0156971,-81.504228,9.164586)"
       r="67.371399"
       fy="331.0322"
       fx="190.40797"
       cy="331.0322"
       cx="190.40797"
       id="radialGradient5359-5"
       xlink:href="#linearGradient9202"
       inkscape:collect="always" />
    <linearGradient
       gradientUnits="userSpaceOnUse"
       y2="294.50507"
       x2="173.03572"
       y1="291.11221"
       x1="161.99202"
       id="linearGradient6383"
       xlink:href="#linearGradient6377"
       inkscape:collect="always" />
    <linearGradient
       gradientUnits="userSpaceOnUse"
       y2="292.54266"
       x2="177.45956"
       y1="288.27563"
       x1="164.73338"
       id="linearGradient6383-3"
       xlink:href="#linearGradient6377"
       inkscape:collect="always"
       gradientTransform="matrix(0.75718429,0.65320131,-0.65320131,0.75718429,229.99131,-59.549312)" />
    <linearGradient
       gradientUnits="userSpaceOnUse"
       y2="299.29846"
       x2="175.68828"
       y1="291.11221"
       x1="161.99202"
       id="linearGradient6383-3-0"
       xlink:href="#linearGradient6377"
       inkscape:collect="always"
       gradientTransform="matrix(-0.59818067,0.87482425,0.87332755,0.59903966,47.236424,-59.716911)" />
    <linearGradient
       gradientUnits="userSpaceOnUse"
       y2="292.02032"
       x2="171.33517"
       y1="287.52985"
       x1="157.79495"
       id="linearGradient6383-3-6"
       xlink:href="#linearGradient6377"
       inkscape:collect="always"
       gradientTransform="matrix(-0.76086969,0.42245966,0.37443915,0.85844856,233.02046,-34.693135)" />
    <linearGradient
       gradientTransform="matrix(1,0,0,1.060241,0,-19.018587)"
       gradientUnits="userSpaceOnUse"
       y2="322.8476"
       x2="193.82027"
       y1="296.07855"
       x1="191.53665"
       id="linearGradient6469"
       xlink:href="#linearGradient6463"
       inkscape:collect="always" />
  </defs>
  <sodipodi:namedview
     id="base"
     pagecolor="#ffffff"
     bordercolor="#666666"
     borderopacity="1.0"
     inkscape:pageopacity="0.0"
     inkscape:pageshadow="2"
     inkscape:zoom="0.11313708"
     inkscape:cx="-903.1005"
     inkscape:cy="2803.4568"
     inkscape:document-units="px"
     inkscape:current-layer="layer1"
     showgrid="false"
     inkscape:window-width="2556"
     inkscape:window-height="1372"
     inkscape:window-x="0"
     inkscape:window-y="30"
     inkscape:window-maximized="0" />
  <metadata
     id="metadata4191">
    <rdf:RDF>
      <cc:Work
         rdf:about="">
        <dc:format>image/svg+xml</dc:format>
        <dc:type
           rdf:resource="http://purl.org/dc/dcmitype/StillImage" />
        <dc:title></dc:title>
      </cc:Work>
    </rdf:RDF>
  </metadata>
  <g
     inkscape:label="Layer 1"
     inkscape:groupmode="layer"
     id="layer1"
     transform="translate(0,1498.8189)">
    <rect
       style="opacity:1;fill:#ffb380;fill-opacity:1;fill-rule:nonzero;stroke:#000000;stroke-width:16;stroke-linecap:round;stroke-linejoin:round;stroke-miterlimit:4;stroke-dasharray:none;stroke-dashoffset:0;stroke-opacity:1"
       id="rect4738"
       width="3975.6501"
       height="2020.2107"
       x="280.63354"
       y="-1235.0408" />
    <path
       style="font-style:normal;font-variant:normal;font-weight:500;font-stretch:normal;font-size:356.82861328px;line-height:86.00000143%;font-family:Futura;-inkscape-font-specification:'Futura Medium';text-align:center;writing-mode:lr-tb;text-anchor:middle;opacity:1;fill:#000000;fill-opacity:1;fill-rule:nonzero;stroke:none;stroke-width:3;stroke-linecap:round;stroke-linejoin:round;stroke-miterlimit:4;stroke-dasharray:none;stroke-dashoffset:0;stroke-opacity:1"
       d="m 2514.413,-1021.9902 c -10.7025,2.3269 -21.8941,3.5156 -32.8965,3.25 -5.2998,2.2156 -11.4546,0.7983 -16.711,3.375 -10.2237,0.946 -19.4419,5.3459 -28.9082,8.9414 -4.1024,1.5133 -9.1549,1.9472 -11.8867,5.8457 -7.6446,4.08869 -5.9011,14.5391 -3.5957,21.28122 4.4489,5.16832 8.8656,12.35132 16.5527,12.3711 3.3612,0.38832 7.335,-1.30529 9.9668,-1.83399 1.3634,8.36699 2.0445,16.76701 1.1915,25.19141 -1.0751,12.00986 0.9498,24.2992 2.9531,35.89453 -1.9234,6.92113 1.971,14.02616 0.076,21.05664 -0.253,5.80977 2.0311,11.5421 0.047,17.23633 -1.0977,7.21776 0.233,14.40447 -0.6718,21.67383 0.8522,14.33714 0.6994,28.78012 1.2949,43.04883 2.0021,8.74916 -0.892,17.61901 0.6816,26.38672 0.33,2.56044 0.5244,7.27147 -3.4609,5.53125 -4.3705,0.0105 -8.8675,-3.26479 -13.1328,-0.70313 -10.3976,-0.68125 -19.9525,10.7708 -15.3536,20.70313 1.1865,4.69734 2.9556,9.4864 7.1231,12.35546 6.0481,7.76567 16.7776,5.99883 25.3615,5.52096 10.6088,0.30244 20.9418,-4.39499 31.5233,-2.35494 10.2479,-1.38559 20.624,-2.08642 30.6738,-4.48047 13.6676,-5.80161 13.5301,-27.76926 0.8183,-34.70312 -6.6543,-4.3598 -14.837,-2.47955 -22.2851,-2.74414 -3.2756,1.02684 -5.109,1.18709 -3.6641,-2.67383 0.2923,-10.1753 -2.2934,-20.31414 -0.096,-30.46875 0.9529,-5.24185 -1.1082,-10.89311 0.4766,-15.86328 9.8429,-1.08401 20.0105,4.6485 29.4844,-0.0293 7.5213,2.46168 14.7735,-2.22225 22.3808,-1.48047 11.0129,-3.03747 22.1924,-5.44313 32.9356,-9.46875 4.2849,0.12895 7.2042,-2.31043 9.8593,-5.18945 10.1888,-1.70736 17.3382,-9.94454 25.8145,-15.03711 6.5452,-10.15593 13.6005,-20.31331 17.7012,-31.7793 3.6653,-12.7525 9.3663,-26.06719 5.7363,-39.58984 -3.0203,-15.91654 -2.9157,-34.32466 -15.1152,-46.74805 -5.693,-6.67639 -7.8533,-16.34997 -16.4981,-20.22656 -4.78,-3.26153 -6.7733,-9.70263 -12.9785,-11.16213 -7.7112,-1.644 -13.8157,-7.4486 -21.8438,-7.7929 -7.6375,-0.8669 -15.12,-3.2488 -22.6464,-4.2813 -4.7914,-1.4313 -9.8918,1.1848 -14.5469,-0.9023 -5.3346,2.8145 -11.4624,-1.2899 -16.3613,-0.1504 z m -26.3555,5.0058 c 1.5538,5.9332 -5.8943,-1.4686 -0.3965,-1.3261 l 0.2865,0.9581 0.11,0.368 z m -0.5859,-1.1933 c 0.023,0.01 -0.011,-0.012 0,0 z m -991.0215,1.2324 c -14.0446,1.7135 -27.7327,5.7764 -41.4024,9.125 -8.5528,6.3905 -17.8989,11.87506 -26.332,18.46874 -7.4642,7.71612 -12.9567,17.2427 -19.9453,25.23437 -1.1481,3.94824 -3.5522,7.35329 -5.2012,10.7793 -0.9663,5.23389 -5.3088,8.99603 -6.248,14.40234 -4.1611,10.27334 -9.4681,20.47964 -11.3653,31.54688 -0.8053,9.12033 -3.057,18.31907 -1.3769,27.47656 -2.0494,12.48327 3.0189,24.53544 4.1719,36.85742 1.4948,8.37295 5.007,16.03537 7.5136,24.11914 2.8859,3.77982 4.6625,7.99607 6.2305,12.48243 3.3588,3.92408 4.5085,9.46108 9.2988,12.33398 4.768,6.30443 11.4219,10.9018 17.2285,16.05469 5.4295,6.5445 13.6992,10.09154 21.1153,13.66992 7.5125,1.20064 13.108,6.77784 20.6972,7.9707 5.4711,1.81624 11.0731,3.70777 16.959,3.26367 4.8869,0.71183 9.9262,0.58016 14.6133,1.93946 7.1299,-3.35065 15.3877,-2.35331 22.375,-6.06836 7.1635,-1.95618 12.9123,-6.78158 20.1337,-8.69078 8.5464,-3.46423 15.3708,-9.67707 21.9796,-15.88344 6.501,-3.06409 8.8686,-10.74657 14.957,-14.41602 8.1259,-9.14745 12.2982,-21.01356 16.7735,-32.11132 3.7265,-5.35498 3.0648,-11.89195 5.3457,-17.7461 1.1598,-6.76206 2.2966,-13.42633 3.871,-20.07812 -0.7319,-7.64546 -0.649,-15.30609 0.1993,-22.9961 -0.3651,-10.31984 -2.1777,-20.63241 -5.0547,-30.5332 -2.7989,-3.92811 -4.9423,-8.3019 -5.2662,-13.05523 -4.0043,-7.86398 -6.6172,-16.41454 -11.6088,-23.68891 -1.4275,-5.55266 -4.4555,-10.25898 -8.3086,-14.35352 -6.2809,-8.6638 -13.1851,-17.00093 -20.3457,-24.77343 -2.7849,-0.66484 -5.3977,-0.69399 -6.9805,-3.7168 -2.6485,-3.41297 -7.4897,-1.90417 -9.834,-5.78317 -3.4556,-2.6802 -7.2817,-7.1301 -11.7675,-5.0938 -2.9101,-1.8945 -6.2282,-2.0315 -9.4141,-1.8242 -3.9697,-2.1183 -8.3515,-2.2676 -12.5996,-2.5391 -3.4138,-0.9887 -6.7858,-2.4813 -10.4121,-2.373 z m 235.8105,0 c -14.0455,1.712 -27.7336,5.7774 -41.4043,9.125 -8.5494,6.3959 -17.9032,11.87237 -26.334,18.47069 -7.4722,7.6804 -12.9239,17.21668 -19.9414,25.23633 -1.2729,3.70249 -3.1312,7.19538 -5.1406,10.29883 -0.7245,5.2911 -5.0206,9.06398 -6.1035,14.35937 -4.2653,9.91814 -8.8517,19.89191 -11.3477,30.48438 -0.6205,9.11903 -3.4964,18.14283 -1.6718,27.375 -1.7544,13.41518 2.8483,26.65284 4.5742,39.87304 0.9943,4.89652 2.1947,9.94887 4.4804,14.26563 0.6928,7.53145 6.7776,13.02416 8.6075,20.2168 2.8231,3.53827 4.7464,7.88551 7.2207,11.34765 5.9733,3.73287 9.0345,10.88369 15.4863,14.02344 5.4253,4.75497 10.032,10.53415 16.9824,13.29492 5.1228,3.83983 11.5639,4.25027 16.9531,7.39453 6.6562,3.83414 14.5271,5.37856 21.8575,7.64063 6.0473,0.70243 12.3257,0.4026 18.2363,1.65429 5.4412,2.13544 10.3719,-3.16854 15.9961,-2.27734 11.7971,-2.26803 21.9608,-9.34374 33.2617,-13.19727 6.6249,-3.75952 12.371,-8.57678 17.9121,-13.67187 6.7616,-3.78264 9.9096,-11.01197 15.9766,-15.54102 8.1529,-9.11198 12.2369,-21.14468 16.748,-32.29687 3.7753,-5.22258 2.8847,-11.64546 5.1973,-17.36914 1.1568,-6.73666 2.3153,-13.36287 3.8281,-19.99805 -0.9326,-8.21455 -0.2841,-16.4384 0.2324,-24.69726 -0.7337,-9.72228 -2.291,-19.46454 -5.0664,-28.81446 -2.8071,-3.94177 -5.0321,-8.25977 -5.2723,-13.04922 -4.0205,-7.86033 -6.6069,-16.44246 -11.6027,-23.66757 -1.4624,-5.54219 -4.4272,-10.29457 -8.3164,-14.375 -6.5213,-8.52689 -12.9078,-17.48933 -20.6953,-24.80274 -2.8947,-0.50038 -5.139,-1.29324 -6.8769,-3.97656 -2.7654,-2.99476 -7.3101,-1.72476 -9.586,-5.50786 -3.4577,-2.6369 -7.2751,-7.139 -11.7441,-5.0761 -2.9068,-1.8609 -6.2009,-2.0837 -9.3848,-1.8184 -4.0026,-2.0454 -8.3774,-2.3277 -12.6523,-2.5508 -3.4133,-0.9886 -6.7844,-2.4812 -10.4102,-2.373 z m 235.8067,0 c -14.1424,1.8624 -28.0806,5.6009 -41.7696,9.3515 -8.567,6.6589 -18.2928,11.87514 -26.6191,18.86333 -7.0893,7.84759 -12.8319,16.96639 -19.502,25.00781 -1.0205,4.89032 -4.9798,8.06151 -5.5449,12.88868 -6.4439,11.04339 -10.2934,23.51508 -15.1699,35.39843 -2.435,7.64832 -2.439,15.70702 -3.8965,23.55274 0.029,6.12787 0.9825,12.26096 0.065,18.32617 1.5533,13.86964 4.0222,27.69015 7.3535,41.2207 2.9307,4.81666 2.5925,10.79864 6.2871,15.38867 3.4067,4.91011 4.0791,11.09835 8.4707,15.45118 1.2875,3.32726 3.1096,5.74142 6.1406,7.63086 4.453,6.1959 10.5577,10.59376 16.4277,15.29492 5.6037,7.00013 14.2911,10.94292 22.2872,14.3457 6.9491,1.33514 12.163,6.50903 19.2382,7.64844 5.6204,1.63722 11.219,3.92866 17.2246,3.42187 4.7376,1.02303 9.5678,-0.085 14.0958,1.93555 4.9457,-0.8904 9.6784,-3.34842 14.9843,-3.16016 7.0544,-2.24607 14.2825,-4.77644 20.7012,-8.58203 11.3173,-3.46 21.1754,-10.22883 29.3242,-18.65429 6.7002,-3.12108 9.1329,-10.83527 15.3067,-14.66407 8.099,-9.15459 12.3422,-21.00037 16.7714,-32.11132 3.7353,-5.34906 3.0491,-11.89228 5.3438,-17.74024 1.1929,-6.76801 2.3204,-13.43634 3.8808,-20.09961 -0.7876,-7.63976 -0.623,-15.29688 0.1915,-22.97851 -0.3429,-10.32263 -2.2138,-20.62489 -5.0469,-30.53321 -2.8119,-3.93801 -5.0309,-8.26662 -5.2749,-13.05675 -3.996,-7.79686 -6.5981,-16.42835 -11.6001,-23.6659 -1.4622,-5.54293 -4.4331,-10.29213 -8.3164,-14.37696 -5.2435,-7.75077 -11.819,-14.60278 -17.5196,-21.83984 -1.0397,-3.14088 -4.3434,-3.47546 -6.9433,-3.69531 -2.4752,-2.40694 -4.9127,-6.17865 -8.8887,-5.65035 -4.6388,-2.6946 -8.6397,-9.5821 -14.293,-8.4102 -3.0374,0.8088 -6.0949,-3.3221 -9.3789,-1.2988 -4.2882,-1.3059 -8.5619,-3.1751 -13.0918,-2.6172 -3.7205,-0.9494 -7.3147,-2.7139 -11.2382,-2.5918 z m 235.8086,0 c -14.0437,1.7169 -27.7342,5.7699 -41.4024,9.125 -8.5436,6.4024 -17.9043,11.86908 -26.332,18.46874 -7.4533,7.72492 -12.9616,17.23872 -19.9453,25.23437 -1.1569,3.9444 -3.5687,7.34173 -5.2012,10.7793 -0.9568,5.23796 -5.313,8.99391 -6.2481,14.40234 -4.1384,9.93306 -9.0374,19.89189 -11.2226,30.54297 -0.8472,9.48297 -3.2178,19.03342 -1.5332,28.55274 -2.0031,12.46423 3.0265,24.49173 4.1855,36.79101 1.5082,8.3674 4.9779,16.04251 7.5137,24.11328 2.8891,3.78205 4.6626,8.0049 6.2363,12.49219 3.3575,3.91887 4.5028,9.45442 9.293,12.32227 4.7658,6.31015 11.426,10.90181 17.2305,16.05859 5.4719,6.55103 13.6758,10.12293 21.1133,13.66797 7.251,1.13312 12.6062,6.5463 19.9082,7.76562 5.7858,1.71851 11.5592,4.00673 17.748,3.46875 4.8892,0.70619 9.9217,0.59026 14.6133,1.93946 7.1223,-3.38223 15.4015,-2.30792 22.375,-6.06836 7.1673,-1.95175 12.9021,-6.80551 20.1374,-8.69126 8.5705,-3.46471 15.3853,-9.71779 22.0247,-15.91616 6.4761,-3.06241 8.8582,-10.70992 14.9121,-14.38477 8.1087,-9.15098 12.3154,-21.00949 16.7695,-32.10937 3.7261,-5.35432 3.0662,-11.89194 5.3457,-17.7461 1.1601,-6.76218 2.2976,-13.42615 3.8711,-20.07812 -0.7395,-7.6424 -0.6375,-15.3033 0.1992,-22.99024 -0.3426,-10.32602 -2.2097,-20.63322 -5.0527,-30.54297 -2.7969,-3.92764 -4.9566,-8.2901 -5.2659,-13.04951 -3.9942,-7.9037 -6.6392,-16.39918 -11.611,-23.69072 -1.4281,-5.5522 -4.4547,-10.2601 -8.3086,-14.35352 -6.2831,-8.66326 -13.185,-17.00658 -20.3496,-24.77539 -2.4202,-0.82762 -5.0352,-0.25619 -6.3926,-3.11133 -2.5825,-3.96878 -7.8819,-2.42068 -10.418,-6.38668 -3.4524,-2.6694 -7.2767,-7.1389 -11.7578,-5.0918 -2.9071,-1.8671 -6.2127,-2.0595 -9.3945,-1.8184 -3.9832,-2.0919 -8.3693,-2.3078 -12.6309,-2.5469 -3.4127,-0.9902 -6.7847,-2.4809 -10.4101,-2.373 z m 283.6015,2.3984 c -0.091,0.049 0.1729,-0.04 0,0 z m -1205.9746,1.1172 c -6.3476,2.2448 -13.4266,2.296 -19.9668,3.1485 -3.668,2.8268 -8.8908,2.7783 -12.5195,5.746 -9.7566,4.3643 -16.1266,13.5656 -24.7398,19.6488 -5.4953,4.69166 -9.2701,10.79023 -12.0454,17.3864 -4.3111,6.97574 -5.349,15.62308 -8.3906,23.20508 -0.3656,8.188 2.0508,18.06924 9.3789,22.81054 9.7574,4.44343 22.9186,-0.57827 26.1934,-11.13476 2.0095,-8.46283 4.7642,-17.06103 11.4086,-23.1487 3.0269,-4.53552 8.2058,-6.83207 11.4039,-11.35911 6.7929,-6.16676 17.082,-4.59683 25.291,-7.75 9.2095,-0.26461 18.414,3.15947 25.6191,9.00586 5.3225,3.25434 4.595,10.52742 5.7305,15.91992 0.1783,9.13929 -1.9471,18.06037 -5.6086,26.45387 -5.6542,11.25392 -10.1141,23.76274 -20.1039,32.10974 -7.0863,7.55043 -15.3281,14.08422 -23.1586,20.71764 -4.5263,0.97835 -6.1006,6.74149 -10.9434,6.85156 -2.0108,2.25586 -3.3606,5.00484 -6.4392,5.75004 -7.0627,7.50019 -16.3773,12.88233 -21.9182,21.75777 -9.2539,8.0667 -12.2627,20.42335 -18.1797,30.75782 -3.4922,11.25709 -12.8375,20.36973 -13.5605,32.48437 0.3669,8.13521 6.1078,16.05943 13.3398,19.39648 7.4529,1.89367 15.129,-1.1448 22.5742,-0.64843 5.9761,-1.59387 12.2574,-1.59551 18.4004,-2.47266 7.6206,-0.46292 14.9873,0.1941 22.5196,1.41016 5.5431,0.63606 11.0202,-0.59213 16.4101,-0.39844 5.4403,-3.45948 12.0059,-0.60653 17.9766,-2.21289 5.7964,1.88937 11.896,2.04752 17.7226,0.7207 6.9074,2.0581 14.6723,3.353 21.1387,-0.83789 10.329,-0.64198 19.3954,-10.46218 18.1953,-21.01953 -1.3022,-5.41625 1.5752,-11.33643 -1.5625,-16.63086 -2.7585,-9.67449 -3.0008,-19.99148 -4.2304,-29.81445 -3.7633,-6.84928 -8.0392,-15.13852 -16.7383,-16.07813 -11.9025,-2.38435 -22.7177,10.11042 -19.6443,21.62371 0.5957,7.93241 3.5545,15.58225 3.5036,23.54036 -6.9614,1.12404 -13.6989,-1.41808 -20.6582,-0.25977 -8.0974,-0.21896 -16.1574,-0.5318 -23.9492,1.91602 -10.9825,0.66323 -21.9333,0.68777 -32.8895,0.48882 -4.4053,1.18933 -0.3786,-3.79073 1.0282,-5.40484 2.2185,-5.11076 6.2204,-9.07498 8.7012,-14.19336 4.6196,-8.24593 12.8672,-13.41203 21.3437,-17.08203 5.4582,-3.90233 10.1727,-8.67067 14.7949,-13.51172 5.5437,-3.04298 9.4651,-8.33292 14.7579,-11.70703 4.4589,-2.49484 5.78,-7.5274 9.8531,-10.45137 5.1816,-6.39852 10.8724,-12.14294 14.8737,-19.39661 2.4373,-3.42792 2.7712,-7.6792 5.5642,-11.00944 4.1977,-9.68714 10.392,-19.03112 10.9433,-29.93555 2.8572,-9.97002 4.0844,-21.1055 0.8653,-31.00391 0.5249,-6.66871 -1.033,-13.20487 -4.3516,-18.91406 -2.6804,-8.32411 -9.7425,-14.10098 -15.0781,-20.625 -5.9387,-3.58192 -11.8522,-7.32392 -18.0645,-10.39842 -10.1543,-3.7514 -21.0934,-5.9429 -31.8535,-5.3789 -0.973,-0.083 -1.9658,-0.2329 -2.9375,-0.072 z m 1867.3789,16.51173 c -6.8883,1.64443 -14.3166,0.76327 -20.7129,4.32813 -7.4921,1.92475 -16.8605,2.29608 -21.1836,10.04101 -4.7504,7.59715 -5.188,18.9825 2.6094,24.84375 6.3418,6.7547 15.4079,1.77774 22.6914,0.10547 0.4787,18.04963 -1.9925,36.00232 -3.0176,53.9375 0.1597,14.45397 -3.1659,28.67173 -2.3626,43.21997 -0.384,13.47812 -1.771,26.86187 -2.3737,40.31128 0.6504,4.7871 0.3593,9.69738 0.6172,14.54883 -7.7883,0.78056 -16.6472,2.98886 -19.709,11.16601 -5.1662,9.33126 -1.51,22.91573 8.3184,27.36133 8.1822,2.234 16.6809,-1.51975 24.9316,0.97461 9.808,2.3113 21.4075,3.15834 29.2129,-4.54492 7.8468,-6.05324 4.8057,-17.17112 0.8437,-24.60742 -1.6971,-3.06951 -4.7963,-5.37421 -7.8945,-6.54492 0.01,-15.43977 -2.2866,-30.78103 0.053,-46.21149 0.3937,-16.4136 -0.035,-32.63467 1.7982,-49.05092 0.8886,-21.1702 1.6916,-42.25692 1.2963,-63.45139 0.1706,-11.41723 2.9037,-26.04806 -7.2665,-34.20613 -2.2871,-1.5683 -5.0878,-2.32291 -7.8516,-2.2207 z m -1917.1875,11.00391 c -2.4279,1.53504 -5.363,-3.41822 0,0 z m 1437.5664,-1.00391 c -4.4254,1.38586 -7.5782,5.66042 -11.9414,7.63867 -6.3908,4.19624 -11.005,12.94948 -6.3926,20.11719 2.2107,4.18906 1.9579,9.73922 6.8848,12.07227 1.8765,5.41889 7.7552,7.68919 13.1873,6.89451 7.7997,1.48936 17.2384,-2.75528 18.4553,-11.30662 2.5141,-8.03016 5.9245,-17.87887 -0.078,-25.51953 -4.1785,-7.21752 -11.9813,-10.74639 -20.1153,-9.89649 z m -150.5937,3.05274 c 8.0192,3.49878 17.1719,-0.75617 25.3496,2.41211 8.6483,2.22187 17.8496,1.76048 26.1679,4.9414 8.0191,4.68326 14.7177,11.6835 18.9864,19.90625 5.4449,7.9155 7.5145,17.6129 7.9316,27.16797 -0.2315,8.92822 -2.7984,17.63124 -4.8887,26.25 -5.9146,8.81984 -11.6942,19.73788 -22.8593,22.76172 -6.2699,3.54757 -13.0593,5.95322 -20.1992,6.5918 -7.8877,3.78873 -16.5985,7.18832 -25.584,5.83398 -6.3494,1.75355 -13.253,0.49434 -19.7989,1.88672 -5.4898,1.01619 -11.8975,-0.64664 -16.4492,-2.43555 1.7338,-6.20245 0.1795,-12.6159 2.3613,-18.77539 -0.4052,-9.29801 -0.2308,-18.7343 -0.9316,-28.03125 -2.1761,-8.04053 -5.3719,-15.98952 -3.9918,-24.52926 0.3668,-13.06911 -0.6903,-26.35629 -1.3266,-39.23441 8.3579,-3.85687 18.3294,-1.76897 27.3546,-2.87868 2.7707,0.16439 5.25,-1.24077 7.8779,-1.86741 z m -1010.1582,6.53711 c 9.9807,2.65363 20.4551,5.90906 27.1582,14.29882 5.2663,3.78844 10.5195,7.97656 12.2109,14.58985 5.59,8.63506 10.8196,17.67735 14.5438,27.33617 6.3921,12.27992 9.4026,25.97539 8.63,39.77711 0.8109,6.23307 0.6592,12.42265 -1.7578,18.30273 -1.4418,9.40103 -2.594,19.20335 -8.2304,27.24219 -2.9863,11.06458 -12.5409,18.59346 -20.4677,26.09324 -8.1957,9.10399 -20.0936,13.54456 -31.6281,16.7466 -6.2227,3.32739 -13.7974,2.00171 -20.541,1.89258 -6.274,-1.869 -12.1603,-4.55951 -18.3906,-6.39453 -6.0119,-1.80901 -11.1189,-6.18335 -16.3217,-9.44304 -7.179,-9.56093 -18.9321,-15.52946 -22.5645,-27.55897 -5.1974,-9.43185 -8.0319,-19.89969 -8.0747,-30.66791 -2.0168,-6.44107 -2.4889,-13.08336 -1.7927,-19.82417 -0.3156,-4.88327 -1.2822,-9.58947 1.0974,-14.23052 0.9643,-4.65199 0.7188,-9.45612 4.4628,-13.0293 1.5314,-4.08237 1.5615,-8.48322 4.0411,-12.34375 2.9927,-7.89588 7.3128,-15.52425 12.6015,-22.18359 2.0832,-3.0208 1.7949,-7.54152 5.3594,-9.94531 3.8455,-4.107 8.7584,-7.28509 13.0156,-10.61133 5.7222,-7.67237 16.0814,-7.69649 24.4141,-10.14063 7.3716,0.15423 14.961,0.11526 22.2344,0.0938 z m 235.8086,0 c 9.9919,2.6429 20.4642,5.88682 27.1601,14.30664 5.2551,3.77359 10.5283,7.93342 12.1895,14.54687 5.5883,8.63992 10.8256,17.67941 14.5461,27.3399 6.4038,12.28807 9.4212,25.99254 8.6472,39.80659 0.7504,6.19856 0.7054,12.34339 -1.7207,18.18554 -1.501,9.42762 -2.5908,19.2946 -8.2676,27.36133 -2.9669,11.07178 -12.5567,18.59236 -20.4696,26.09519 -8.3844,9.31369 -20.6608,13.74303 -32.4854,17.04153 -5.9483,3.06218 -13.2656,1.62994 -19.6797,1.5957 -6.2738,-1.87246 -12.1634,-4.55861 -18.3946,-6.39453 -6.1257,-2.11642 -11.832,-6.18295 -16.8431,-10.09388 -7.1583,-9.18285 -18.5034,-15.15478 -22.0244,-26.8929 -5.129,-9.31009 -8.0858,-19.67977 -8.0309,-30.33353 -1.4022,-5.84181 -2.9897,-11.65184 -1.9082,-17.77539 0.368,-5.45877 -1.4933,-10.73557 0.9388,-15.92543 1.1288,-4.70295 1.0858,-9.48588 4.3366,-13.32457 1.2646,-4.44305 2.3042,-8.68601 4.4121,-12.84375 2.4202,-7.46799 6.8468,-14.02334 11.2836,-20.45333 3.8642,-3.07382 2.2441,-8.63535 6.607,-11.44511 3.7445,-4.29313 8.8706,-7.33891 13.0996,-10.80859 5.5265,-7.47051 15.5271,-7.47646 23.5723,-9.9961 7.6212,-0.0542 15.5117,0.0905 23.0313,0.008 z m 471.6171,0 c 9.9914,2.6397 20.4517,5.89653 27.1582,14.29687 5.2446,3.78095 10.5309,7.9115 12.1836,14.53711 5.5842,8.65436 10.8392,17.69726 14.5631,27.37146 6.3801,12.23147 9.426,26.04352 8.6381,39.79651 0.8131,6.23151 0.6561,12.42112 -1.7558,18.30078 -1.4813,9.39617 -2.5928,19.20835 -8.2325,27.24414 -2.9868,11.0673 -12.5501,18.58466 -20.4657,26.09324 -6.5845,7.16841 -15.6209,11.79 -24.8292,14.6841 -6.4319,1.76677 -12.3592,5.15775 -19.1777,4.17782 -6.8194,1.11404 -12.9529,-2.0919 -19.2754,-3.9493 -5.2506,-2.74841 -11.4347,-3.0516 -16.0508,-7.15333 -8.6752,-4.00831 -13.0788,-12.96756 -21.0098,-18.10253 -5.6607,-6.22094 -9.224,-13.66801 -12.3415,-21.39945 -4.4845,-8.29834 -3.8989,-17.76705 -5.4358,-26.74508 -3.139,-7.75712 0.044,-16.32938 -1.8867,-24.28711 1.6106,-5.0478 2.4067,-10.35074 3.3672,-15.41797 2.5637,-3.00263 4.2452,-6.5874 4.2988,-10.48047 4.0398,-10.75542 9.2823,-21.25052 16.502,-30.18129 0.6807,-7.75676 8.7043,-11.92327 14.0292,-16.46324 4.035,-2.3266 6.6566,-7.23208 11.6543,-8.46875 7.501,-1.80678 14.9692,-4.87692 22.7852,-3.74609 5.0691,-0.27038 10.3221,0.0146 15.2812,-0.10742 z m -235.8085,0.006 c 10.0259,2.61577 20.4311,5.91529 27.1523,14.29102 5.2149,3.78802 10.5222,7.93377 12.1855,14.52148 5.573,8.66388 10.8632,17.69738 14.5735,27.38287 6.3502,12.23783 9.3999,25.85051 8.6238,39.63862 0.7785,6.19866 0.712,12.31883 -1.6484,18.15234 -1.6986,9.23444 -2.3267,19.0917 -8.0879,26.99414 -3.4028,12.60074 -14.6418,20.54578 -23.3535,29.29492 -8.6534,8.2928 -20.5277,11.36811 -31.545,15.13672 -5.5673,1.89022 -12.1237,1.03272 -17.9375,0.87696 -6.2811,-1.87975 -12.1836,-4.55906 -18.4199,-6.40625 -6.0254,-1.80143 -11.1114,-6.20324 -16.3374,-9.44695 -7.0934,-9.5655 -19.0424,-15.49689 -22.5319,-27.5021 -5.1012,-9.28245 -8.0842,-19.69276 -8.0486,-30.37908 -1.4315,-5.83385 -2.9403,-11.65625 -1.9063,-17.76758 0.3589,-5.574 -1.5438,-10.99794 1.0391,-16.31054 1.0275,-4.84812 1.0634,-9.93583 4.7597,-13.70118 1.2515,-4.03789 1.4499,-8.24641 3.8535,-12.01171 3.1742,-8.6394 8.3044,-16.73939 13.883,-23.99064 0.7287,-7.72043 8.6287,-11.97804 14.0487,-16.45663 4.1379,-2.51256 6.9671,-7.53503 12.2246,-8.68555 7.6416,-1.82465 15.1791,-4.73623 23.1543,-3.54101 4.7082,-0.19019 9.6525,-8.3e-4 14.3184,-0.0898 z m -757.7422,0.79688 c -2.0841,0.40245 -5.434,-2.00995 0,0 z m 127.1621,9.82031 c 0.4531,-2.29209 1.3621,-3.13977 0,0 z m 465.7519,-0.83984 c -3.7117,7.98533 -4.05,-4.01891 0,0 z m 235.7383,-0.1543 c -3.3146,7.79282 -4.4421,-3.08334 0,0 z m 235.4356,-0.52148 c -1.2266,4.37408 -3.9188,4.58926 0,0 z m -707.3028,0.13476 c -1.604,4.6858 -3.9256,3.8219 0,0 z m -40.332,2.34375 c 0.6071,3.57721 -2.4618,4.87862 -0.5508,-0.0859 l 0.5508,0.0859 z m 707.4258,0 c 0.076,6.77305 -3.033,3.65738 0,0 z m -471.6367,-0.002 c 0.5024,3.34801 -2.4923,4.98437 -0.5293,-0.082 l 0.5293,0.082 z m 235.9941,0.0723 c -0.6616,4.79541 -2.7191,4.02386 0,0 z m 1243.4004,20.72266 c -4.8213,-0.86568 -7.641,3.54358 -12.4356,3.13672 -3.8667,1.37835 -6.6814,4.84946 -11.1152,4.8457 -6.127,1.92927 -9.8306,7.78695 -14.9902,11.36133 -5.7058,5.59329 -11.7832,11.16564 -14.2787,19.10551 -5.728,11.06151 -3.4494,23.79552 -1.9616,35.56051 3.6401,10.05074 8.6274,20.78357 18.1114,26.5332 3.4547,3.20754 8.7018,3.46365 11.9609,6.91602 8.018,1.72365 15.5608,5.55853 23.5684,7.21289 9.9762,6.99275 23.5844,3.95022 33.4121,11.4414 6.1695,1.86799 5.0194,11.09007 0.012,13.76758 -3.9504,5.03495 -9.1675,9.61509 -16.0078,9.24805 -5.471,0.97787 -10.989,1.56554 -16.5547,1.85547 -6.2445,-0.67773 -12.5993,-2.60003 -16.5879,-7.74805 -1.8112,-1.46024 -7.3914,-2.56932 -4.041,-5.62695 4.7645,-9.25996 -0.515,-23.59947 -11.9473,-23.85547 -6.1062,-1.12418 -12.3014,0.88265 -16.9902,4.66601 -7.1442,5.95188 -11.1438,14.93823 -17.9043,21.33789 -2.4356,4.65721 -5.6066,8.92161 -8.0567,13.45899 -2.872,9.86985 3.4813,23.97887 14.9649,23.39844 6.4165,-0.74143 12.7017,-3.69759 16.9121,-8.66993 10.1777,8.08219 21.1273,16.19453 33.8633,19.42383 15.0454,2.43398 30.8881,0.88711 45.0156,-4.875 5.5915,-3.33648 11.8607,-5.37456 16.6656,-10.07937 5.5269,-3.44224 9.1952,-8.58993 14.186,-12.75657 5.9998,-8.02946 6.3962,-18.8257 6.5399,-28.48477 -0.015,-10.25326 -4.0672,-19.96377 -9.6903,-28.29062 -4.295,-5.14809 -10.9816,-6.81512 -15.336,-11.88086 -9.0592,-5.97323 -20.4991,-6.18406 -30.2011,-10.82617 -3.965,-0.50108 -7.4272,-1.58141 -10.9453,-3.45312 -6.7558,-1.00159 -12.8761,-4.62917 -19.4493,-6.35156 -4.0853,-1.51208 -9.5461,-5.32936 -6.9472,-10.32227 -0.044,-10.54511 8.8542,-18.11191 18.3231,-20.72597 7.6365,-1.71837 16.5713,-2.48716 23.5968,1.79433 1.7176,0.86288 6.8995,1.79184 3.3945,3.93555 -6.9556,8.48964 -3.7052,22.17762 6.0313,26.96484 7.5556,4.52227 15.8704,-0.66047 21.8379,-5.33398 7.2431,-8.01205 14.2425,-16.30741 23.375,-22.25782 9.3205,-9.04068 7.8841,-27.51893 -3.4551,-34.27148 -7.6051,-4.16369 -16.7135,-1.37349 -23.0488,3.6582 -2.7264,-3.13579 -6.1428,-4.92367 -9.3633,-7.28906 -10.6684,-2.569 -21.2414,-6.54327 -32.3773,-6.11671 -2.6836,-0.29361 -5.3851,-0.46107 -8.0856,-0.40673 z m -237.3945,1.62695 c -7.8238,-0.0878 -14.2958,4.96063 -19.7247,9.85157 -11.841,8.44338 -22.1306,19.51538 -29.5609,32.07756 -5.1338,7.80899 -5.5057,17.15795 -7.7379,25.899 -4.2858,10.28594 -4.0467,21.51111 -3.4609,32.39844 -0.3148,11.91037 4.6952,23.26581 6.998,34.84375 3.8319,2.82526 3.5061,8.22408 6.4942,11.70117 2.9616,9.26985 10.5497,15.56571 18.5955,20.36744 10.3452,7.04488 22.8008,11.26996 35.4201,9.83178 8.3153,0.31874 16.5913,-1.4004 24.5508,-3.13867 4.7055,-0.19375 8.094,-4.08427 12.8261,-4.21289 12.9248,-6.16157 25.0173,-15.3601 31.5977,-28.44336 6.2377,-10.52847 4.3306,-27.80575 -8.6035,-32.13868 -9.7076,-2.20038 -16.3965,7.83081 -21.0039,14.77344 -8.7548,12.19349 -24.9433,15.49882 -39.086,16.4336 -10.6599,0.80017 -22.3057,-5.12817 -24.5976,-16.25586 -4.2694,-7.41324 -4.7516,-16.78576 -6.543,-24.5254 12.2835,0.74528 24.7624,-1.36496 36.5059,2.83204 8.1283,0.26483 16.275,-0.40982 24.3652,0.10351 6.6565,0.53022 13.3126,1.27417 19.8438,-0.23242 8.0077,0.38105 15.7973,-4.4557 17.7832,-12.47656 3.862,-8.68093 2.9119,-18.46388 -0.4434,-27.08008 -0.9306,-10.93612 -6.0981,-20.70709 -9.9534,-30.81337 -3.0935,-9.9604 -9.605,-19.13356 -19.5544,-23.23351 -7.2575,-2.8141 -14.5639,-5.73053 -22.0899,-7.74023 -7.5295,-0.0582 -15.0068,-1.1449 -22.621,-0.82227 z m -341.4629,15.51758 c -11.9072,1.36083 -24.5835,4.54793 -33.1602,13.45703 -4.3678,7.83657 -2.3325,18.06915 5.0898,23.25586 3.4898,4.1173 8.5832,5.37256 13.7403,4.00782 0.1306,7.78308 0.2963,15.51063 0.5898,23.16601 1.0511,12.73487 -0.6675,25.57603 1.1407,38.30859 1.4688,7.69908 2.0199,16.29876 1.2539,23.61915 -7.6439,2.15845 -15.3422,9.23055 -13.3497,17.92578 1.256,10.89138 11.2107,20.40802 22.4382,19.50469 6.112,1.42974 12.2346,-1.32332 18.2769,0.11925 10.1237,0.15767 23.9432,-2.45404 26.5941,-13.96282 2.447,-7.83574 -0.4482,-17.15085 -7.649,-21.30175 -3.2022,-1.96097 -7.8155,-1.68392 -10.666,-3.30273 0.3081,-5.24937 -1.021,-10.36063 -1.7261,-15.36907 0.5274,-10.25667 -3.7931,-20.19061 -1.6782,-30.34187 0.4861,-5.98684 -2.0033,-11.68864 -0.1973,-17.63281 0.4862,-4.91196 -2.4606,-9.13322 -1.1836,-14.07422 0.088,-10.34255 -2.0349,-20.5529 -0.5918,-30.87305 0.649,-7.60615 -4.0532,-15.55625 -12.2129,-16.13672 -2.2133,-0.37227 -4.4694,-0.43181 -6.7089,-0.36914 z m 260.8379,0.42383 c -7.6902,1.15178 -15.6461,0.31783 -23.3301,1.97266 -7.6451,0.22579 -15.0477,4.11375 -22.711,1.89453 -7.8562,0.20308 -15.7384,-0.13376 -23.5586,0.18164 -10.753,0.86425 -19.4775,11.98504 -15.8867,22.55664 1.9997,7.13151 9.2518,10.46689 16.0182,11.12693 -1.7179,3.62948 -6.7045,7.9408 -11.1159,10.3376 -2.9401,3.90176 -8.2249,5.27933 -11.0605,9.29133 -2.6202,0.67801 -5.2822,4.01042 -7.5273,3.84375 -4.9159,-6.34816 -9.3892,-13.10405 -14.8828,-19.04883 14.944,-3.38775 15.9843,-28.20435 2.2265,-33.94141 -3.7957,-2.87494 -8.8936,-0.26521 -12.9004,-2.64453 -11.3334,-0.13537 -22.3659,2.23553 -33.6171,2.25391 -6.4015,0.8623 -13.3635,-1.49664 -19.3692,2.23437 -10.4115,3.97512 -12.4243,18.31709 -5.6836,26.40625 3.7972,5.45922 11.1419,7.30294 17.3633,8.16993 4.4198,-0.32973 11.0033,-1.59778 12.2441,4.2207 3.7118,5.39139 8.7162,9.55077 12.1654,15.13393 5.3824,6.6384 11.3936,13.59254 15.6784,20.73716 -5.5182,5.4654 -12.0624,9.47813 -17.0996,15.41797 -7.3443,5.6887 -12.0576,14.15859 -19.6133,19.78516 -7.3706,4.34504 -10.1882,13.69141 -17.3906,17.9082 -6.8887,0.19274 -14.4951,-1.35072 -20.4883,3.26172 -8.0309,4.06543 -10.9244,14.22391 -7.0371,22.18164 3.8635,11.33976 17.8932,15.14531 28.3496,11.22266 11.2189,-1.22373 22.4521,1.60881 33.625,-0.35938 8.7808,-0.52469 19.8986,0.43864 25.2676,-8.18945 6.9209,-9.47109 2.447,-24.22421 -8.3867,-28.57031 8.741,-8.79773 17.3589,-18.04989 28.0019,-24.48633 2.1697,3.05291 4.4963,5.91961 6.0742,9.34765 5.5842,3.36739 10.4559,8.1271 12.8965,14.22657 2.9402,1.92643 -4.1519,0.91584 -5.6836,2.20508 -8.3514,1.55464 -14.272,9.29711 -13.7324,17.79101 0.3631,7.06061 6.8616,11.77149 11.3887,16.24414 12.4643,4.50305 25.0928,-2.55411 37.7011,-1.77148 13.876,-0.51716 27.8089,1.38905 41.6953,0.71289 15.5981,-2.56612 19.9702,-26.31081 6.8926,-34.80078 -8.3816,-5.13373 -18.633,-1.74018 -27.6679,-1.69532 -3.4787,-2.90418 -5.6166,-7.14837 -9.6192,-9.40234 -2.9324,-5.214 -7.9153,-8.23974 -11.3349,-13.07964 -5.4259,-5.32614 -8.1207,-12.95919 -15.0948,-16.74263 -1.5499,-1.05251 -6.3746,-4.36237 -2.8027,-6.03515 5.0984,-5.49325 10.6034,-10.6579 16.6269,-15.10547 3.0507,-4.16072 6.3746,-8.01598 11.127,-10.18555 4.5189,-4.61663 8.7869,-9.483 14.75,-12.24609 3.442,-4.35758 6.8567,-8.75256 11.4375,-12.10547 5.1572,-5.8189 13.7208,-2.57612 20.4863,-3.11328 9.8157,-0.5652 16.5345,-10.09821 16.0176,-19.50781 0.5618,-7.01838 -5.8939,-11.25419 -10.4336,-15.39649 -3.0055,-1.73134 -6.6819,-1.66274 -10.0058,-2.23828 z m 95.2929,20.80859 c 7.6046,1.75417 15.4451,5.17858 18.75,12.76368 2.42,4.41082 5.3892,9.83536 6.4785,14.13867 -9.0026,-1.11898 -18.2215,1.73157 -27.0644,-1.44336 -10.1584,-3.35586 -21.1752,-3.34901 -31.582,-1.27539 3.1485,-6.63898 8.9351,-11.45252 13.0921,-17.45423 5.5187,-4.71293 13.0357,-7.40061 20.3258,-6.72937 z m -18.7734,26.61915 c -3.2015,2.94504 -2.5282,-7.75115 0,0 z m -133.9004,28.3125 c -2.6722,7.41529 -6.6637,-5.81107 0,0 z m -1589.9336,14.65039 c -2.5858,0.68697 -1.3668,-8.0705 0,0 z m 769.082,32.90625 c -3.7183,4.77835 -5.793,-2.93357 0,0 z m -235.7929,0.0391 c -3.2689,4.26886 -6.3995,-2.47438 0,0 z m -235.7442,0.22265 c -4.3361,1.42185 -4.5003,0.53588 -0.014,-0.17773 l 0.014,0.17773 z m 707.4258,0 c -4.3361,1.42185 -4.5003,0.53588 -0.014,-0.17773 l 0.014,0.17773 z m 607.0508,8.39649 c -0.4298,2.57419 -3.4725,7.56546 0,0 z m -239.5137,22.99609 c 0.5231,3.36834 -3.3554,4.62697 -0.3789,-0.125 l 0.3789,0.125 z m -936.9512,15.32227 c 0.9778,1.98842 -3.5819,6.33875 0,0 z m 235.795,-0.004 c 1.2164,1.83717 -3.674,6.45531 0,0 z m 781.75,54.67383 c -15.0089,2.5967 -31.042,3.50496 -44.1426,11.99023 -8.889,3.03521 -15.8263,9.50124 -23.9531,13.85157 -4.0796,2.71416 -6.4045,7.9239 -11.1916,10.07397 -7.2948,8.16089 -14.2414,18.25006 -14.5936,29.42212 -2.8446,7.83755 -2.4493,16.10499 -0.9668,24.16602 0.8493,8.60454 2.4522,18.0363 8.3555,24.75 1.9103,5.22603 8.0288,6.00472 10.8535,10.55468 5.6079,3.39141 10.8919,7.33114 15.7656,11.82813 9.5119,4.87891 18.4331,11.67559 28.9121,13.84961 5.3223,1.99747 10.6747,3.4803 16.0469,5.20117 4.9859,0.87696 9.826,3.94998 15.171,4.32353 6.849,1.03668 13.1325,4.32984 20.1884,3.88936 6.6242,3.49722 15.0112,1.65271 21.6933,5.60156 8.4509,1.29963 11.7566,10.46131 17.3907,15.81641 3.8505,6.64084 8.8944,13.81843 6.4104,21.84009 0.1057,8.20103 -8.3147,12.92138 -13.2171,18.39428 -4.7442,2.81348 -10.2515,4.47924 -15.2597,6.53125 -8.2427,1.93395 -15.9294,5.026 -24.0118,7.47071 -5.9159,-1.25559 -12.2405,2.71276 -17.707,-0.97852 -11.5125,-0.0593 -22.4537,-5.07591 -32.8965,-9.47461 -7.1129,-4.02921 -12.1773,-10.44022 -18.9961,-14.88476 -0.9749,-1.93659 -3.2298,-3.30495 -4.2129,-4.56641 1.742,-7.64553 2.9976,-16.21192 0.2364,-23.75195 -3.9149,-5.5539 -10.1033,-13.69836 -17.9375,-11.05664 -8.7562,-2.03745 -17.1076,4.82709 -18.5528,13.33008 -1.8752,6.91552 0.6626,14.12884 -0.7461,21.11523 -0.049,13.50727 -6.2974,26.27905 -5.1132,39.88477 -1.4366,7.71663 -3.3579,16.8699 3.0742,23.02539 3.4728,4.98483 9.9023,6.9682 15.6406,7.57812 9.7371,0.11309 16.1076,-9.00907 16.8262,-17.94336 0.5501,-3.10196 0.765,-6.2499 1.205,-9.36719 4.0333,4.72368 8.6928,9.04749 14.9805,10.33985 6.8101,2.2333 12.7996,7.26355 20.1133,7.6875 10.0933,0.081 18.7989,6.81311 29.0723,6.41211 6.574,-0.28999 12.9133,0.73534 19.4843,0.74023 9.5949,-1.18221 18.4591,-6.58393 28.2305,-7.54687 7.8499,-3.22116 17.2151,-3.79056 23.2285,-10.35352 4.0045,-0.64668 7.9603,-2.07141 10.334,-5.76172 4.3576,-3.0353 8.1823,-6.60437 11.7617,-10.625 6.9188,-4.81398 7.1841,-14.03669 10.9363,-20.81976 1.2448,-12.09421 4.1526,-24.73096 -0.9578,-36.39118 -2.1376,-7.67728 -5.7953,-15.20392 -10.0683,-21.61718 -4.8652,-3.15562 -6.1407,-9.39285 -11.5195,-11.97266 -5.7807,-4.69977 -10.1392,-11.25177 -16.3614,-15.18164 -6.9648,-0.83227 -12.4441,-6.91 -19.4219,-7.66797 -7.8143,0.81463 -14.7889,-5.4134 -22.7597,-3.30664 -4.4413,-1.933 -9.3191,-2.19868 -14.1231,-2.3418 -5.0143,-5.12259 -13.7825,-0.90932 -19.0312,-6.04297 -8.0989,-2.19377 -16.7948,-3.38291 -23.7077,-8.69437 -5.5202,-4.26979 -11.3047,-8.0542 -16.8802,-12.17672 -8.3496,-7.0752 -4.2099,-18.53721 -3.5879,-27.77148 5.34,-8.81864 13.1768,-15.42588 21.4941,-21.0586 9.3613,-6.76971 20.7837,-10.4023 32.1133,-11.40625 5.4393,-1.26398 11.2244,-0.0927 16.752,-0.45703 4.9955,1.15636 10.0302,0.90268 15.0058,1.96094 6.2273,-0.0289 12.0645,3.13991 17.2852,6.36914 4.6427,3.81916 8.052,8.84268 11.4922,13.69727 4.2556,8.09114 1.394,17.46815 -2.3301,25.14648 -2.2839,9.35383 4.378,19.93162 13.0742,23.39258 8.2478,1.45978 19.6439,-1.17396 22.3262,-10.25586 4.2326,-11.29925 5.3227,-23.49723 5.1269,-35.50195 1.2913,-8.44367 0.923,-16.89752 4.3809,-24.91602 1.3593,-6.82144 4.0176,-15.07993 0.5215,-21.39258 -3.3337,-3.43094 -5.8277,-8.46146 -11.1504,-8.91601 -6.0892,-2.98057 -13.4856,0.006 -18.7969,3.18164 -2.4388,1.89811 -2.2213,7.21425 -4.2871,7.875 -5.231,-5.84011 -13.0333,-7.09576 -19.416,-11.12696 -6.6068,-3.05459 -14.1815,-1.80413 -20.998,-3.11523 -5.2716,-0.28582 -10.7453,-0.86678 -16.1543,-1.84766 -3.5345,-0.057 -6.927,-0.78296 -10.4336,-1.00195 z m -1354.8594,2.5332 c -7.634,1.45685 -15.4994,0.61226 -23.0781,2.4375 -6.3465,0.8857 -12.5785,-1.52963 -18.9473,-1.17382 -11.002,1.85531 -16.1518,15.23439 -11.6719,24.84374 0.5482,4.90913 2.4139,10.90029 7.916,11.99219 8.4853,6.02156 20.0412,2.90544 29.0918,1.94727 -2.5358,7.2699 1.6441,14.78193 0.1993,22.14453 1.6508,12.94374 -0.1887,26.25672 -0.032,39.41602 -1.9657,11.5394 1.7225,23.1873 -0.2613,34.76171 0.5234,7.70916 -0.7744,15.58487 1.4687,23.1543 -0.5156,10.02269 -2.0597,20.14035 -1.7851,30.20898 1.3618,7.44366 -3.2941,14.854 -0.3887,22.25586 -0.335,8.34567 0.4218,16.75399 0.1738,25.14649 -0.6019,3.41228 -3.2342,6.88139 -7.1601,5.3125 -9.1,-0.73142 -14.5719,9.71976 -14.9278,17.62109 0.957,8.13999 4.7132,16.94772 11.5254,21.79297 7.7431,3.52918 15.015,-3.49422 22.8086,-2.25781 13.4153,-2.30295 28.2262,1.72048 40.7129,-4.60547 7.1795,-5.96724 12.4882,-17.96097 5.1719,-25.82617 -4.774,-5.80256 -11.5891,-13.69504 -19.9902,-10.90625 0.3781,-13.26546 1.5055,-26.59025 0.666,-39.89844 2.2083,-9.03464 -0.9949,-18.31287 0.7949,-27.34961 0.576,-10.34754 1.2801,-20.76523 -0.4668,-31.05078 -1.2003,-6.78349 0.9333,-13.57812 0.1406,-20.27539 -2.1549,-8.79413 1.4617,-17.76538 -0.2422,-26.6543 0.6796,-5.3711 1.4481,-10.82372 0.8379,-16.17187 2.9612,-5.02187 -0.996,-10.19852 0.2324,-15.53906 1.1121,-5.58447 0.9988,-11.0894 -0.2832,-16.60938 0.5408,-2.73164 0.8594,-4.89914 4.1485,-4.40625 12.4533,-1.33361 20.421,-16.69714 14.6953,-27.66016 -2.053,-3.22565 -6.1852,-4.10182 -7.9824,-7.75195 -7.9463,-7.51942 -19.3976,-2.22887 -28.875,-4.60156 -1.4898,-0.1848 -2.9893,-0.3262 -4.4922,-0.29688 z m 283.8203,6.4668 c -6.4049,0.41794 -12.2713,5.81605 -14.502,11.39453 -4.2179,6.71748 -4.522,14.90095 -5.9414,22.55664 -0.3157,7.5486 -2.2367,15.62204 -3.6601,22.55664 -8.5516,-0.92342 -16.968,1.09225 -25.4902,-0.24804 -10.2711,-0.54184 -19.2745,9.74105 -18.8516,19.73046 -0.2675,10.353 9.5013,17.91381 19.3086,17.95899 7.1951,0.93134 14.2467,0.35226 21.3574,0.15625 0.7392,2.93862 -1.0702,7.61204 -0.7871,11.2207 -0.049,12.44994 -1.915,24.8719 0.1113,37.30197 0.7181,11.08937 2.2923,22.05559 3.0938,33.15702 1.5425,11.33946 3.1836,22.92882 6.7871,33.68359 1.136,9.22727 4.353,19.00903 13.0164,23.79317 7.3148,5.38491 15.1714,10.1558 23.2277,14.21269 11.0864,3.33797 23.8722,4.9644 34.084,-1.78125 8.577,-5.28829 10.2904,-18.56731 4.6172,-26.48438 -4.3874,-5.29192 -10.9849,-7.74579 -17.8008,-7.75586 -5.5126,-1.03645 -10.2279,-4.25329 -15.2422,-6.64648 -8.3835,-5.67797 -6.6657,-17.00875 -10.537,-25.19625 -2.5531,-19.57522 -3.9893,-39.30842 -5.3966,-58.97758 0.2007,-7.54748 1.0617,-15.04732 2.2266,-22.48047 10.0435,0.55799 21.2779,4.04226 30.1504,-2.54687 6.9319,-3.56492 11.6179,-11.2903 9.1387,-19.10742 -2.8914,-11.62432 -15.0266,-19.14316 -26.7539,-17.73915 -2.4727,-0.75731 -9.4336,1.67525 -8.8223,-1.92882 2.3295,-10.63346 3.5536,-21.5822 5.0092,-32.30272 0.5063,-8.35736 -0.3539,-19.34003 -9.4643,-22.76759 -2.721,-1.47549 -5.8348,-1.81432 -8.8789,-1.75977 z m 565.832,9.27539 c -5.6018,3.80468 -12.5856,2.28785 -18.4648,4.89649 -8.472,0.34804 -18.8798,0.0658 -23.9317,8.40039 -6.619,8.76767 -6.4762,23.09455 3.6055,29.29101 5.8129,4.59613 13.2535,2.28943 19.6641,0.66602 -4.4404,14.76291 -3.9972,30.5327 -6.2808,45.75415 -2.4383,21.55321 -0.1905,43.69229 -2.0747,64.88843 0.178,7.79226 -0.183,15.56813 0.8027,23.36323 -0.4769,4.94533 0.3615,9.78661 0.9082,14.55864 -1.7485,2.04325 -5.6647,0.53193 -7.7402,2.8457 -7.2711,4.61278 -14.3212,14.01859 -9.168,22.6836 4.1151,7.99345 13.6979,12.42996 22.4122,9.73633 10.4693,0.4397 20.9544,-2.78487 31.4433,-0.94532 8.8822,0.47141 19.587,-4.62624 19.9746,-14.57226 4.513,-7.11592 1.6732,-16.4282 -4.8008,-21.28321 -3.8022,-3.63507 -9.7485,-3.06126 -13.9961,-4.72851 -3.3091,-8.27912 -1.8707,-17.64889 -3.0383,-26.36094 0.4966,-6.28899 -1.4901,-13.65018 1.7005,-19.28359 9.1753,-5.92158 18.0538,-12.64875 28.7421,-15.77149 11.0606,-3.22533 22.2624,-7.91921 33.8711,-7.61133 4.4373,1.79839 9.2549,3.63916 11.25,8.59766 6.1177,8.50568 4.6731,19.37193 6.8907,29.01563 -0.1635,6.45908 1.1979,12.97752 0.332,19.35546 -1.1838,12.45639 -0.022,25.84574 -4.6309,37.72461 -7.4299,0.31045 -14.3186,3.4895 -19.1816,9.09766 -4.9414,4.2145 -3.9356,10.96693 -3.4316,16.61523 2.257,6.88276 7.9626,12.70435 15.5156,13.00586 8.5578,2.27473 16.8463,-1.15434 25.0625,-2.88476 7.4327,-1.39481 15.9368,0.85022 22.2695,-4.27539 6.1907,-3.25226 11.9907,-9.10565 13.6445,-15.89063 1.4474,-8.58908 -2.3345,-18.83007 -11.6105,-20.97572 -5.4269,-0.315 -1.6698,-5.78831 -2.2098,-9.12193 -0.8558,-7.17848 2.1057,-14.31713 1.2344,-21.66211 -0.4284,-9.10929 0.5952,-18.21012 -1.4023,-27.16602 -0.1961,-12.31149 -2.9781,-24.76495 -7.2559,-36.3457 -7.873,-12.95192 -16.632,-28.17651 -32.7168,-31.5332 -7.0259,-5.81926 -16.9589,-3.00581 -25.1685,-1.78154 -12.0102,4.11823 -25.5495,4.02433 -36.4682,10.98661 -6.3746,0.65764 -10.4616,6.14703 -15.7149,9.14844 1.1221,-6.89571 0.2745,-14.03459 2.303,-20.70413 0.519,-18.81677 3.5628,-37.51359 6.1111,-56.1572 -1.7237,-6.87006 -0.5672,-16.58476 -8.7598,-19.60742 -2.9516,-1.3695 -6.4547,-2.3832 -9.6914,-1.96875 z m -196.4043,0.83594 c -8.8703,1.03104 -18.0147,0.63842 -26.709,2.39258 -5.0196,0.0708 -9.9951,0.96307 -14.9257,-0.0977 -10.034,-0.31371 -21.7937,-3.32396 -29.8946,4.69141 -5.4149,4.25898 -8.504,11.1848 -5.9843,17.92773 2.8348,9.35511 0.4773,19.30744 1.1894,28.89063 -4.0162,11.30996 2.8487,27.88143 16.1934,28.08398 4.137,-0.58224 8.2445,-0.84343 12.209,-2.09375 9.9074,-5.67715 9.4771,-18.66431 7.9589,-28.47461 -0.6357,-4.67348 -0.013,-9.40461 -0.8574,-14.05469 8.5472,0.70608 17.2718,2.13858 25.6211,-0.80664 7.0322,0.37726 14.106,-1.69983 21.16,0.34358 3.3982,1.05686 7.7602,0.6001 10.8185,2.049 0.6685,8.41654 0.9098,17.02265 0.2481,25.47461 -2.3492,11.51242 -1.0781,23.29303 -2.0352,34.91406 0.8923,11.49278 0.7698,22.97487 -0.9726,34.40235 -1.2822,10.84404 0.857,21.72626 -1.0235,32.50976 -1.0277,9.99108 1.7021,19.82607 0.668,29.80469 1.7601,5.55232 0.5603,11.27109 1.3242,16.97852 0.7652,2.42471 0.5606,5.42795 1.1719,7.63085 -6.8504,1.61536 -15.2648,1.52976 -19.3672,8.36915 -5.8897,5.69633 -2.2942,14.45735 1.2129,20.31445 4.5912,5.29344 10.7939,10.4162 18.3574,9.17773 8.1291,-0.32728 15.5068,-4.63342 23.8143,-3.75331 9.2619,-0.76003 18.6769,-0.0183 27.8263,0.41347 8.2026,-2.31476 13.026,-11.33775 13.0547,-19.41211 -0.9224,-11.87318 -13.0682,-20.68027 -24.5761,-20.10742 -4.5428,-0.55033 -2.9324,-7.06698 -3.6602,-10.28907 -0.9896,-8.6957 -3.0183,-17.29607 -2.3008,-26.14838 -0.7439,-10.4185 2.8918,-20.79418 0.1913,-31.17501 -0.7932,-6.06615 0.9919,-11.99684 0.4806,-18.07114 2.2405,-10.07769 0.9061,-20.60323 0.4726,-30.80468 0.3953,-11.12054 0.045,-22.12735 1.9003,-33.25147 1.0291,-9.22592 -0.2285,-18.82921 0.3869,-27.76416 7.7833,1.03676 15.686,1.71768 23.5898,1.0957 8.3203,-0.49043 17.0066,1.9182 25.0488,-0.5957 2.2761,0.1459 4.1208,0.81967 3.5547,3.54688 3.2697,12.15224 -3.8622,25.38931 2.8418,36.88086 2.2987,5.02775 7.3362,8.86773 13.0527,8.41796 7.6073,2.4195 17.3882,-3.30282 19.1172,-11.37304 2.5419,-7.04686 2.4194,-14.85568 2.8204,-22.14258 -1.1591,-9.87938 -2.2319,-19.79692 -1.5098,-29.67188 0.6138,-9.2417 -4.3433,-20.06284 -14.3789,-21.57226 -4.999,-3.54266 -11.2558,-2.36735 -16.6328,-0.58399 -7.588,-2.93378 -15.787,0.26875 -23.6094,-0.83203 -8.0201,1.42416 -16.0794,0.43326 -24.0723,1.84375 -18.2523,-3.9261 -36.7406,1.5172 -55.1003,-1.6697 -2.9432,-0.18353 -5.7239,-1.52883 -8.6751,-1.40842 z m 765.7325,45.58984 c -2.6504,2.33305 -5.0701,1.36437 -0.1582,-0.29297 l 0.1582,0.29297 z m 282.2734,9.03125 c -4.4495,2.11394 -9.8795,-2.43381 -14.1992,1.21875 -6.4537,1.44079 -13.3643,1.13098 -19.1192,5.05078 -7.4998,3.46873 -15.9306,5.58513 -21.0492,12.57801 -6.1222,5.1257 -12.7909,10.04185 -16.2473,17.59063 -5.7655,8.26532 -8.4043,21.38772 0.3668,28.62629 6.9024,6.36084 18.5884,4.13021 23.0918,-3.94141 10.0988,-10.26255 21.3752,-22.85686 37.0899,-22.34375 7.9024,0.61331 19.4081,-2.71385 23.2539,6.75 1.3604,3.21156 2.391,7.54206 2.0625,10.50976 -10.2722,-2.04846 -20.6018,1.93966 -30.4121,4.63868 -6.0054,4.88099 -14.6589,4.60633 -20.0865,10.53475 -12.58,7.98289 -24.0758,18.29455 -30.182,32.18517 -5.0021,8.67565 -7.5285,18.42484 -10.169,28.01836 -1.7463,9.30803 2.3671,18.38489 5.8359,26.74609 3.663,5.2959 8.6563,9.66638 12.6446,14.59766 4.8511,0.82041 8.2302,4.64239 13.291,4.6914 10.1694,3.09814 21.8465,7.77592 31.7656,1.22461 6.2854,-3.58881 13.9124,-4.52832 20.0879,-8.10937 5.6493,-1.02888 8.2064,-7.2044 13.3877,-9.33885 4.0781,-4.46264 2.8398,0.77606 3.1709,4.01072 0.4726,8.77683 9.3439,13.78727 17.4121,13.61719 7.6236,-0.54914 15.0309,1.03446 22.416,0.60352 9.5656,-1.45724 18.8249,-8.85818 18.5078,-19.25977 0.7463,-8.77376 -4.4283,-19.78151 -14.4829,-19.61422 -2.2833,-1.09285 -5.476,0.25297 -7.4136,-0.99906 0.9333,-12.162 0.9429,-24.52895 0.2578,-36.76953 0.499,-22.54217 -2.0714,-45.35462 -8.7988,-66.90821 -5.3582,-6.91656 -5.7396,-17.05716 -12.9453,-22.38867 -3.8684,-1.70343 -6.7561,-5.87005 -11.2177,-7.09886 -6.5849,-3.43456 -13.6778,-6.46119 -21.2022,-5.93043 -2.3453,-0.15576 -4.8136,-1.14198 -7.1172,-0.49024 z m -641.4219,6.44727 c -7.8259,-0.0936 -14.301,4.95922 -19.7285,9.84961 -11.6066,8.21642 -21.61,19.05371 -29.0723,31.19922 -4.7683,7.3273 -6.1261,15.91897 -7.5343,24.31849 -3.9751,10.51606 -5.4182,21.79981 -4.0516,32.98033 -0.9668,12.56947 4.4904,24.54358 6.8945,36.72266 3.8178,2.82665 3.5059,8.21632 6.4942,11.69141 2.9122,8.88476 9.9526,15.21579 17.7636,19.83007 10.5381,7.32299 23.286,11.87282 36.25,10.37696 8.3119,0.3154 16.5881,-1.38936 24.543,-3.13867 4.7196,-0.12484 8.066,-4.16748 12.8164,-4.2168 15.0338,-7.04869 29.4615,-18.84 34.2442,-35.37695 3.3269,-10.49813 -2.6152,-25.66402 -15.0254,-25.56836 -11.6877,1.94917 -14.9359,15.23065 -23.4121,21.74609 -11.7101,7.56991 -26.5339,11.12963 -40.4707,9.18945 -8.9946,-1.15294 -15.7102,-8.65119 -17.6407,-17.24218 -3.8989,-6.82272 -4.3298,-16.06369 -5.7851,-22.87891 12.0688,0.76138 24.2182,-1.46127 35.6777,2.72266 8.3517,0.58052 16.7572,-0.51011 25.0762,0.19335 7.0289,0.68734 14.1427,1.1585 20.9726,-0.40624 7.7418,0.55968 14.3337,-4.76142 16.5196,-12.02149 4.0648,-8.73035 3.0152,-18.65797 -0.3203,-27.37695 -0.9397,-10.93181 -6.0981,-20.70574 -9.9513,-30.81149 -3.1068,-10.30066 -10.0318,-19.48115 -20.2382,-23.54203 -7.1339,-2.66222 -14.2626,-5.55396 -21.6367,-7.46875 -7.4481,0.0205 -14.8499,-1.11437 -22.3848,-0.77148 z m 472.627,0 c -7.8329,-0.11191 -14.279,4.9917 -19.7285,9.84961 -11.9387,8.5286 -22.3286,19.70342 -29.7579,32.42187 -6.2371,9.91576 -5.468,21.95542 -9.6777,32.60156 -2.7983,10.0828 -1.2157,20.64445 -1.2021,30.87859 1.8491,10.3218 4.2578,20.98459 7.7939,30.58235 3.3502,2.6567 2.9494,7.78157 5.8125,10.92969 4.0071,12.1914 15.9005,18.62687 26.3711,24.5 13.0539,7.10063 28.4078,5.69476 42.6152,4.04297 4.6422,-1.34057 9.3675,-1.654 13.8868,-3.15235 4.6051,-3.32126 10.8808,-2.5998 15.0644,-6.88476 5.8069,-3.06482 11.3372,-6.83535 15.6953,-11.93945 9.7356,-9.61901 17.5366,-26.13046 8.6875,-38.7461 -3.8772,-6.27897 -13.0046,-8.71666 -18.7168,-3.49805 -8.843,6.47525 -12.1303,19.22461 -23.4567,22.59037 -12.0348,5.18516 -25.9996,8.39286 -38.8187,3.97409 -7.4559,-2.83012 -11.0088,-10.29301 -13.1972,-17.42383 -3.3821,-6.47912 -3.4973,-14.62766 -5.211,-21.26563 12.2087,0.72874 24.7509,-1.32403 36.5039,2.83204 8.1585,0.30912 16.4058,-0.48287 24.375,0.10546 7.0287,0.68338 14.1421,1.1621 20.9727,-0.40624 7.7391,0.55876 14.3353,-4.75782 16.5156,-12.01954 4.0565,-8.72033 3.0414,-18.66214 -0.3144,-27.37109 -0.9381,-10.93073 -6.0958,-20.70275 -9.9468,-30.80785 -3.13,-10.40336 -10.206,-19.65788 -20.5318,-23.69801 -7.2415,-2.2665 -14.1411,-5.84834 -21.6171,-7.30664 -7.3578,-0.0398 -14.6774,-1.11415 -22.1172,-0.78906 z m -1430.6348,0.20703 c -6.6707,1.45795 -13.4797,2.56466 -20.2009,0.97393 -7.991,1.08873 -16.9982,0.56436 -22.803,7.11396 -8.9283,6.11042 -11.4717,19.75214 -3.6152,27.77539 3.6055,4.72517 9.6173,5.65467 15.0215,5.88672 3.3218,-0.45229 2.846,1.36294 2.4121,3.9375 -0.049,11.53458 1.8422,23.05172 0.8437,34.5664 1.6512,12.12555 1.515,24.17991 1.2813,36.37891 0.1008,6.11821 0.2422,12.21506 1.1718,18.32031 0.083,4.04846 -6.1129,2.47578 -8.8615,3.80077 -8.4095,0.39268 -15.4103,6.80051 -16.656,15.13478 -0.8103,6.32647 -1.8205,14.91386 3.4843,19.41406 8.4743,5.42993 19.2057,4.55021 28.75,3.58203 7.9123,-2.04881 15.8992,-3.52677 24.1426,-3.51953 4.8928,-2.14711 10.2306,-1.23751 15.3027,-2.57617 8.6399,-4.74372 20.1715,-12.10249 18.4571,-23.55469 -0.6296,-8.19367 -6.799,-15.86824 -15.4239,-16.20898 -4.2151,-1.39679 -9.7141,-1.02035 -13.3808,-1.77539 -0.1334,-6.22527 -2.1156,-12.22741 -1.2246,-18.55664 0.8711,-6.03045 0.5542,-12.10634 0.4023,-18.08008 5.6519,-4.47424 11.5,-9.23317 18.4239,-11.69727 6.3942,-3.85169 12.8701,-7.63414 20.0931,-9.92367 3.8772,-2.66536 8.4274,-1.92177 12.524,-4.19547 3.7846,0.79207 9.4884,0.0869 11.7364,3.99414 3.0946,5.93039 5.283,12.27205 6.1562,18.86524 3.483,13.05156 4.0939,26.70838 3.4336,40.13476 0.3142,4.73599 2.307,10.05776 0.8496,14.47461 -7.1703,2.38065 -16.6031,2.95767 -19.623,11.27539 -2.9731,5.01672 -1.7859,11.40907 -1.5664,16.82227 4.5229,9.08002 16.2045,13.2896 25.6996,10.5931 15.0238,-2.35908 31.7913,1.94307 45.4136,-6.43685 8.48,-5.65339 12.881,-18.7034 5.5489,-27.02148 -3.1614,-6.31036 -10.8155,-10.64644 -17.3711,-9.38282 -2.2108,-22.01074 -0.7554,-44.38975 -4.3692,-66.23047 -2.8419,-7.53027 -5.6982,-15.16274 -9.05,-22.41835 -6.5261,-9.01542 -14.1872,-18.34351 -25.4002,-21.28418 -9.5717,-4.51222 -20.2371,-4.10152 -30.3896,-2.36973 -6.759,2.24571 -13.4334,4.75377 -20.3047,6.67187 -8.4826,4.30934 -16.1957,9.92483 -24.9062,13.81055 0.3389,-3.18228 -3.1673,-8.65334 1.7382,-8.92187 7.1755,-3.20489 13.4161,-9.33641 13.5977,-17.6211 0.9997,-12.95658 -7.9282,-21.67468 -21.3379,-21.75195 z m -5.6973,5.30664 c -2.892,0.36545 -3.3878,-6.99714 0,0 z m 332.6231,10.19726 c -14.1614,1.59812 -29.0531,2.57893 -41.2734,10.78321 -6.6343,3.17303 -14.0673,5.29487 -18.6114,11.62109 -8.0955,8.01501 -15.4746,17.28854 -18.8222,28.31446 -3.0921,8.03752 -9.4409,14.93841 -8.3848,24.0996 -0.2487,9.93599 0.4026,19.80894 3.2988,29.4004 0.8126,9.55946 4.482,18.76814 10.1778,26.36718 2.5965,6.30543 7.5933,11.4358 12.1289,16.33399 15.2313,10.10785 34.1617,15.12072 52.3789,13.19531 13.4541,1.55307 27.2863,-1.79236 39.0879,-8.21094 7.6469,-4.00111 17.0033,-6.42057 21.5156,-14.52734 6.7007,-7.48868 13.247,-15.24014 16.8779,-24.81087 7.0074,-17.38656 3.893,-36.99574 0.1514,-54.75359 -1.0249,-5.8081 -2.4623,-11.62568 -5.0938,-16.97265 -4.0538,-4.22033 -5.1453,-9.95747 -9.5524,-13.99262 -8.0195,-12.13236 -21.2198,-19.80945 -34.4515,-25.09527 -6.3197,-1.69681 -13.0378,-1.45463 -19.4277,-1.75196 z m 645.7207,21.02344 c 7.5852,1.7889 15.4999,5.16273 18.7754,12.78321 2.3929,4.3945 5.4262,9.85478 6.4726,14.13476 -9.121,-1.09748 -18.4511,1.72602 -27.4062,-1.51367 -9.8782,-3.54746 -21.587,-2.86355 -31.1309,-1.43359 3.2626,-6.45591 8.8034,-11.33749 12.9793,-17.21743 5.5057,-4.79234 13.036,-7.34996 20.3098,-6.75328 z m 472.6465,0.0156 c 7.4558,1.71453 15.5185,5.12823 18.7519,12.75976 2.4764,4.41177 5.2943,9.83653 6.5489,14.12305 -9.5533,-1.00841 -19.4746,1.87977 -28.7331,-1.93666 -9.7464,-2.77383 -20.1144,-2.76918 -29.9818,-0.76451 2.8679,-6.44151 8.6259,-10.82928 12.4004,-16.71485 5.3857,-5.35294 13.4892,-8.07218 21.0137,-7.46679 z m -1127.2735,17.75586 c 10.1251,0.65924 20.8134,1.56283 29.0176,8.26367 7.2869,4.21236 9.08,13.18703 11.4473,20.57226 1.8321,6.61045 2.1742,13.23321 1.7597,20.00391 1.1284,8.65539 -2.8765,17.5069 -8.791,23.65625 -5.803,4.31007 -12.4686,7.65007 -19.1952,10.06714 -14.3394,2.20683 -28.9239,1.22912 -43.2481,-0.37183 -8.344,-2.92159 -10.4174,-12.17064 -12.17,-19.70117 -3.9071,-9.59641 -3.8218,-20.62237 1.42,-29.70312 2.406,-6.50655 7.1392,-11.67605 10.4004,-17.69532 3.9025,-7.26064 12.4842,-8.42872 18.9687,-12.36328 3.256,-1.51654 6.7502,-2.77857 10.3906,-2.72851 z m 635.9161,8.79492 c -3.167,3.23227 -2.6594,-7.7254 0,0 z m 472.664,-0.0918 c -3.2094,3.62102 -2.8011,-7.63045 0,0 z m -1033.9121,6.36328 c -5.0039,3.13357 0.6045,-2.44425 0,0 z m -145.7363,8.76953 c -2.9825,2.27939 -3.8096,-6.55492 0,0 z m -363.1758,4.69141 c -1.2217,-1.41398 -0.7668,-0.97301 0,0 z m 1735.7422,1.38477 c 3.7439,2.88284 2.7494,9.18342 2.914,13.52148 -1.0384,3.98169 0.2866,8.49635 -1.4082,12.08594 -8.6865,7.579 -16.9866,15.94351 -27.1738,21.49219 -6.793,3.92117 -14.7943,6.9001 -22.6191,7.09765 -5.1928,-2.43156 -12.6429,-4.40199 -12.6465,-11.48047 0.5745,-8.54114 4.8305,-17.01733 10.6914,-23.23047 8.6121,-6.33087 16.9733,-13.23891 27.4922,-16.44336 7.078,-3.80098 15.1254,-1.76455 22.75,-3.04296 z m -1537.8574,5.00976 c 3.2354,6.86711 -8.0323,1.19559 0,0 z m -75.0879,3.1543 c -3.5037,4.98987 5.464,1.48236 -1.2969,3.6875 -1.5446,-0.33279 -0.435,-2.87408 1.2969,-3.6875 z m 561.9336,24.28516 c -0.9741,2.0253 -7.0058,1.53036 0,0 z m -231.3848,22.66601 c -2.4309,2.94265 -4.963,-3.89498 0,0 z m 550.6582,20.96875 c -4.9925,6.21619 -1.9599,-6.32527 0,0 z m 380.5898,2.73633 c -2.5667,-0.81247 -2.9722,-6.26142 0,0 z m 57.0293,14.67578 c -3.0814,4.14847 -3.793,-5.98357 -0.4638,-0.40627 l 0.4638,0.40627 z m -0.6718,0.80664 c -1.0175,0.55494 0.464,-0.50483 0,0 z m -743.8516,13.91602 c -2.3261,3.2573 -5.5429,-4.93595 0,0 z"
       id="text5377"
       inkscape:connector-curvature="0" />
    <text
       transform="scale(0.95579971,1.0462443)"
       sodipodi:linespacing="89.999998%"
       id="text4740"
       y="-179.4381"
       x="2371.0483"
       style="font-style:normal;font-variant:normal;font-weight:500;font-stretch:normal;font-size:149.9103241px;line-height:89.99999762%;font-family:Futura;-inkscape-font-specification:'Futura Medium';text-align:center;writing-mode:lr-tb;text-anchor:middle;opacity:0.5;fill:#000000;fill-opacity:1;fill-rule:nonzero;stroke:none;stroke-width:3;stroke-linecap:round;stroke-linejoin:round;stroke-miterlimit:4;stroke-dasharray:none;stroke-dashoffset:0;stroke-opacity:1"
       xml:space="preserve"><tspan
         style="font-style:normal;font-variant:normal;font-weight:bold;font-stretch:normal;line-height:89.99999762%;font-family:Unkempt;-inkscape-font-specification:'Unkempt Bold';text-align:center;text-anchor:middle;fill:#000000;stroke:none;stroke-width:3"
         y="-179.4381"
         x="2371.0483"
         sodipodi:role="line"
         id="tspan4809">made in 72 hours</tspan><tspan
         style="font-style:normal;font-variant:normal;font-weight:bold;font-stretch:normal;line-height:89.99999762%;font-family:Unkempt;-inkscape-font-specification:'Unkempt Bold';text-align:center;text-anchor:middle;fill:#000000;stroke:none;stroke-width:3"
         y="-44.518806"
         x="2371.0483"
         sodipodi:role="line"
         id="tspan5333">for Ludum Dare 36</tspan><tspan
         style="font-style:normal;font-variant:normal;font-weight:bold;font-stretch:normal;line-height:89.99999762%;font-family:Unkempt;-inkscape-font-specification:'Unkempt Bold';text-align:center;text-anchor:middle;fill:#000000;stroke:none;stroke-width:3"
         y="90.400482"
         x="2371.0483"
         sodipodi:role="line"
         id="tspan5339">by Leslie Whler</tspan><tspan
         style="font-style:normal;font-variant:normal;font-weight:bold;font-stretch:normal;line-height:89.99999762%;font-family:Unkempt;-inkscape-font-specification:'Unkempt Bold';text-align:center;text-anchor:middle;fill:#000000;stroke:none;stroke-width:3"
         y="225.31976"
         x="2371.0483"
         sodipodi:role="line"
         id="tspan5343">and Sebastian Morr</tspan><tspan
         style="font-style:normal;font-variant:normal;font-weight:bold;font-stretch:normal;font-family:Unkempt;-inkscape-font-specification:'Unkempt Bold';text-align:center;text-anchor:middle;fill:#000000;stroke:none;stroke-width:3"
         y="360.23904"
         x="2371.0483"
         sodipodi:role="line"
         id="tspan5335" /></text>
    <rect
       style="opacity:1;fill:#7b7bff;fill-opacity:1;fill-rule:nonzero;stroke:#000000;stroke-width:14.27310562;stroke-linecap:round;stroke-linejoin:round;stroke-miterlimit:4;stroke-dasharray:none;stroke-dashoffset:0;stroke-opacity:1"
       id="rect5345"
       width="3978.0212"
       height="441.97278"
       x="277.26157"
       y="342.12372" />
    <text
       xml:space="preserve"
       style="font-style:normal;font-variant:normal;font-weight:500;font-stretch:normal;font-size:206.54924011px;line-height:125%;font-family:Futura;-inkscape-font-specification:'Futura Medium';text-align:start;writing-mode:lr-tb;text-anchor:start;opacity:1;fill:#ffffff;fill-opacity:1;fill-rule:nonzero;stroke:none;stroke-width:3.00000024;stroke-linecap:round;stroke-linejoin:round;stroke-miterlimit:4;stroke-dasharray:none;stroke-dashoffset:0;stroke-opacity:1;"
       x="1778.0763"
       y="607.50061"
       id="text4767"
       sodipodi:linespacing="125%"
       transform="scale(0.96283226,1.0386025)"><tspan
         sodipodi:role="line"
         id="tspan4769"
         x="1778.0763"
         y="607.50061"
         style="font-style:normal;font-variant:normal;font-weight:bold;font-stretch:normal;font-family:Unkempt;-inkscape-font-specification:'Unkempt Bold';fill:#ffffff;stroke:none;stroke-width:3.00000024;">Click to start!</tspan></text>
    <text
       xml:space="preserve"
       style="font-style:normal;font-variant:normal;font-weight:bold;font-stretch:normal;font-size:25px;line-height:125%;font-family:Unkempt;-inkscape-font-specification:'Unkempt Bold';text-align:start;writing-mode:lr-tb;text-anchor:start;opacity:1;fill:#b3b3b3;fill-opacity:1;fill-rule:nonzero;stroke:none;stroke-width:3;stroke-linecap:round;stroke-linejoin:round;stroke-miterlimit:4;stroke-dasharray:none;stroke-dashoffset:0;stroke-opacity:1"
       x="2753.2971"
       y="-609.33875"
       id="text4805"
       sodipodi:linespacing="125%"><tspan
         sodipodi:role="line"
         id="tspan4807"
         x="2753.2971"
         y="-609.33875">1</tspan></text>
    <g
       id="layer1-4"
       inkscape:label="Ebene 1"
       transform="matrix(2.3495571,0,0,2.3495571,3009.0879,-520.0652)">
      <path
         inkscape:export-ydpi="125.97915"
         inkscape:export-xdpi="125.97915"
         inkscape:export-filename="C:\Users\SmeV\Documents\ld36\images\seamonster.png"
         sodipodi:nodetypes="czc"
         inkscape:connector-curvature="0"
         id="path4999-1-7"
         d="m 392.22554,439.2894 c 0,0 -37.4446,-21.50225 -63.12076,-8.86755 -25.67615,12.63467 -12.14512,24.82254 -12.14512,24.82254"
         style="fill:none;fill-rule:evenodd;stroke:url(#linearGradient5009-0-3);stroke-width:5;stroke-linecap:round;stroke-linejoin:miter;stroke-miterlimit:4;stroke-dasharray:none;stroke-opacity:0.29260451" />
      <path
         inkscape:export-ydpi="125.97915"
         inkscape:export-xdpi="125.97915"
         inkscape:export-filename="C:\Users\SmeV\Documents\ld36\images\seamonster.png"
         sodipodi:nodetypes="czc"
         inkscape:connector-curvature="0"
         id="path4999"
         d="m 195,433.43362 c 0,0 -11.84812,-6.6789 -30.0624,-1.73842 -18.21429,4.94048 -21.36617,12.09557 -21.36617,12.09557"
         style="fill:none;fill-rule:evenodd;stroke:url(#linearGradient5009);stroke-width:5;stroke-linecap:round;stroke-linejoin:miter;stroke-miterlimit:4;stroke-dasharray:none;stroke-opacity:0.29260451" />
      <path
         inkscape:export-ydpi="125.97915"
         inkscape:export-xdpi="125.97915"
         inkscape:export-filename="C:\Users\SmeV\Documents\ld36\images\seamonster.png"
         sodipodi:nodetypes="csczc"
         inkscape:connector-curvature="0"
         id="path4959-6"
         d="m 171.9724,230.73117 c 0,0 -15.79751,-14.57507 -12.46441,-24.59355 10.88339,-32.71278 6.37423,-48.33115 6.37423,-48.33115 0,0 6.09984,18.52452 20.19746,37.43662 14.09762,18.9121 4.28957,27.90688 4.28957,27.90688"
         style="fill:#b20013;fill-opacity:1;fill-rule:evenodd;stroke:#000000;stroke-width:3;stroke-linecap:round;stroke-linejoin:round;stroke-miterlimit:4;stroke-dasharray:none;stroke-opacity:1" />
      <path
         inkscape:export-ydpi="125.97915"
         inkscape:export-xdpi="125.97915"
         inkscape:export-filename="C:\Users\SmeV\Documents\ld36\images\seamonster.png"
         sodipodi:nodetypes="czscczcczc"
         inkscape:connector-curvature="0"
         id="path4957"
         d="m 92.142857,277.3622 c 0,0 36.819793,-4.77739 49.285713,-26.42857 12.46592,-21.65118 13.51636,-53.29968 52.14286,-51.42857 50.34958,2.43899 45,52.85714 45,52.85714 l 3.57143,194.28571 c 0,0 -15.23809,10.71429 -35.71429,10.71429 -20.4762,0 -37.85714,-10.71428 -37.85714,-10.71428 0,0 7.13018,-151.83678 -2.14286,-164.28572 0,0 -1.6877,21.6716 -37.87817,17.26684 C 92.359933,295.22429 92.142857,277.3622 92.142857,277.3622 Z"
         style="fill:#3c9f79;fill-opacity:1;fill-rule:evenodd;stroke:#000000;stroke-width:3;stroke-linecap:butt;stroke-linejoin:miter;stroke-miterlimit:4;stroke-dasharray:none;stroke-opacity:1" />
      <path
         inkscape:export-ydpi="125.97915"
         inkscape:export-xdpi="125.97915"
         inkscape:export-filename="C:\Users\SmeV\Documents\ld36\images\seamonster.png"
         sodipodi:nodetypes="csczc"
         inkscape:connector-curvature="0"
         id="path4959"
         d="m 200,222.3622 c 0,0 -1.45111,-21.445 7.85714,-26.42857 30.39371,-16.27257 37.85715,-30.71428 37.85715,-30.71428 0,0 -8.30636,17.64569 -11.07143,41.07142 -2.76507,23.42573 -16.07143,23.21429 -16.07143,23.21429"
         style="fill:url(#linearGradient4967);fill-opacity:1;fill-rule:evenodd;stroke:#000000;stroke-width:3;stroke-linecap:round;stroke-linejoin:round;stroke-miterlimit:4;stroke-dasharray:none;stroke-opacity:1" />
      <path
         inkscape:export-ydpi="125.97915"
         inkscape:export-xdpi="125.97915"
         inkscape:export-filename="C:\Users\SmeV\Documents\ld36\images\seamonster.png"
         inkscape:transform-center-y="2.5244654"
         inkscape:transform-center-x="-0.52211894"
         sodipodi:nodetypes="czcc"
         inkscape:connector-curvature="0"
         id="path4993"
         d="m 174.95193,251.72473 c 0,0 -6.38758,-13.18866 2.97706,-16.88616 9.36466,-3.69751 13.43848,8.99372 13.43848,8.99372 l -22.69825,11.30938"
         style="fill:#ffffc0;fill-opacity:1;fill-rule:evenodd;stroke:#000000;stroke-width:1px;stroke-linecap:butt;stroke-linejoin:miter;stroke-opacity:1" />
      <ellipse
         inkscape:export-ydpi="125.97915"
         inkscape:export-xdpi="125.97915"
         inkscape:export-filename="C:\Users\SmeV\Documents\ld36\images\seamonster.png"
         ry="4.9083385"
         rx="4.3726239"
         cy="244.86223"
         cx="178.75"
         id="path4995"
         style="fill:#000000;fill-opacity:1;stroke:#eef4a7;stroke-width:7.32617998;stroke-linecap:round;stroke-linejoin:round;stroke-miterlimit:4;stroke-dasharray:none;stroke-dashoffset:0;stroke-opacity:0" />
      <path
         inkscape:export-ydpi="125.97915"
         inkscape:export-xdpi="125.97915"
         inkscape:export-filename="C:\Users\SmeV\Documents\ld36\images\seamonster.png"
         sodipodi:open="true"
         d="m 111.24248,286.62901 a 5.1785712,5.7142859 0 0 1 0.17564,-6.66082 5.1785712,5.7142859 0 0 1 5.77506,-1.94826 5.1785712,5.7142859 0 0 1 3.5211,5.41369"
         sodipodi:end="0"
         sodipodi:start="2.5481807"
         sodipodi:ry="5.7142859"
         sodipodi:rx="5.1785712"
         sodipodi:cy="283.43362"
         sodipodi:cx="115.53571"
         sodipodi:type="arc"
         id="path4997"
         style="fill:none;fill-opacity:1;stroke:#000000;stroke-width:1;stroke-linecap:round;stroke-linejoin:round;stroke-miterlimit:4;stroke-dasharray:none;stroke-dashoffset:0;stroke-opacity:1" />
      <path
         inkscape:export-ydpi="125.97915"
         inkscape:export-xdpi="125.97915"
         inkscape:export-filename="C:\Users\SmeV\Documents\ld36\images\seamonster.png"
         sodipodi:nodetypes="czc"
         inkscape:connector-curvature="0"
         id="path4999-1"
         d="m 194.18999,474.13612 c 0,0 42.00094,10.01826 63.04808,-9.37035 21.04714,-19.38861 4.61856,-27.24576 4.61856,-27.24576"
         style="fill:none;fill-rule:evenodd;stroke:url(#linearGradient5009-0);stroke-width:5;stroke-linecap:round;stroke-linejoin:miter;stroke-miterlimit:4;stroke-dasharray:none;stroke-opacity:0.29260451" />
      <path
         inkscape:export-ydpi="125.97915"
         inkscape:export-xdpi="125.97915"
         inkscape:export-filename="C:\Users\SmeV\Documents\ld36\images\seamonster.png"
         sodipodi:nodetypes="czzzzczzzczc"
         inkscape:connector-curvature="0"
         id="path5037"
         d="m 325.35714,445.57649 c 0,0 -4.486,-43.52874 6.42858,-60 10.91457,-16.47127 34.95526,-8.75329 42.49999,-22.85714 7.54473,-14.10385 -0.48587,-24.29503 -4.64285,-42.5 -4.15698,-18.20497 11.45324,-30.52661 29.64285,-30.71429 18.18961,-0.18768 46.78572,44.64286 46.78572,44.64286 0,0 -37.82548,-33.10498 -46.78571,-18.21429 -8.96024,14.89069 17.85698,44.40643 11.42857,57.5 -6.42841,13.09357 -26.34447,16.96267 -35.00001,32.5 -8.65554,15.53734 3.57144,40.71429 3.57144,40.71429 0,0 -12.46495,6.41035 -27.16733,6.23177 -14.70239,-0.17857 -26.76125,-7.3032 -26.76125,-7.3032 z"
         style="fill:#3c9f79;fill-opacity:1;fill-rule:evenodd;stroke:#000000;stroke-width:3;stroke-linecap:round;stroke-linejoin:round;stroke-miterlimit:4;stroke-dasharray:none;stroke-opacity:1" />
      <path
         inkscape:export-ydpi="125.97915"
         inkscape:export-xdpi="125.97915"
         inkscape:export-filename="C:\Users\SmeV\Documents\ld36\images\seamonster.png"
         sodipodi:nodetypes="csc"
         inkscape:connector-curvature="0"
         id="path5063"
         d="m 169.95074,246.80145 c 0,0 -2.95952,-12.20592 4.77328,-15.36331 8.14828,-3.32704 14.41961,2.73641 14.41961,2.73641"
         style="fill:none;fill-rule:evenodd;stroke:#000000;stroke-width:1px;stroke-linecap:butt;stroke-linejoin:miter;stroke-opacity:1" />
      <ellipse
         inkscape:export-ydpi="125.97915"
         inkscape:export-xdpi="125.97915"
         inkscape:export-filename="C:\Users\SmeV\Documents\ld36\images\seamonster.png"
         ry="1.7857143"
         rx="2.1428571"
         cy="243.43362"
         cx="177.5"
         id="path5065"
         style="fill:#ffffff;fill-opacity:1;stroke:none;stroke-width:3;stroke-linecap:round;stroke-linejoin:round;stroke-miterlimit:4;stroke-dasharray:none;stroke-dashoffset:0;stroke-opacity:1" />
    </g>
    <g
       id="layer1-3"
       inkscape:label="Ebene 1"
       transform="matrix(6.1233091,0,0,6.1233091,-273.8608,-1680.1521)">
      <path
         inkscape:export-ydpi="320.43033"
         inkscape:export-xdpi="320.43033"
         inkscape:export-filename="C:\Users\SmeV\Documents\ld36\images\island.png"
         sodipodi:nodetypes="aacassaaaaa"
         inkscape:connector-curvature="0"
         id="path5289-8"
         d="m 137.39434,330.72411 c 6.34998,-8.27652 17.03922,-6.61757 25.71249,-9.05613 14.51938,-4.08223 26.83232,-9.39992 43.96266,-9.30219 8.01413,0.35425 12.84446,7.71238 19.65159,9.88225 7.70496,2.45607 17.12877,-1.97215 23.62218,3.4347 36.57982,30.45882 -13.46837,37.18759 -18.68347,48.47155 -7.46042,16.1422 -20.61641,25.59613 -33.65629,27.04647 -10.99828,1.22327 -21.22821,-9.676 -30.80965,-16.22787 -14.88254,-10.17681 -44.01895,-17.70275 -40.8499,-35.45139 0.47454,-2.65773 5.81215,-0.81987 7.57614,-2.86366 3.55183,-4.11522 0.513,-12.07406 3.47425,-15.93373 z"
         style="fill:url(#radialGradient5359-5);fill-opacity:1;fill-rule:evenodd;stroke:none;stroke-width:3;stroke-linecap:butt;stroke-linejoin:round;stroke-miterlimit:4;stroke-dasharray:none;stroke-opacity:1" />
      <path
         inkscape:export-ydpi="320.43033"
         inkscape:export-xdpi="320.43033"
         inkscape:export-filename="C:\Users\SmeV\Documents\ld36\images\island.png"
         sodipodi:nodetypes="aacassaaaaa"
         inkscape:connector-curvature="0"
         id="path5289"
         d="m 138.39089,326.95629 c 6.34998,-6.18235 17.05721,-4.85948 25.71249,-6.7647 14.24112,-3.13478 25.93946,-7.7358 43.0698,-7.6628 8.01413,0.26462 13.39784,6.33365 20.54444,8.09609 7.68997,1.89645 17.85599,-2.04807 23.62218,2.56563 34.43696,27.55397 -13.46837,27.77821 -18.68347,36.20705 -7.46041,12.05782 -20.6164,19.11967 -33.65628,20.20304 -10.99828,0.91375 -20.58945,-7.95714 -30.80965,-12.12182 -14.04411,-5.72291 -38.14759,-2.98932 -41.92133,-17.67767 -1.15687,-4.50282 6.51562,-6.81131 8.64757,-10.94272 1.89526,-3.67275 0.513,-9.01902 3.47425,-11.9021 z"
         style="fill:url(#radialGradient5359);fill-opacity:1;fill-rule:evenodd;stroke:none;stroke-width:3;stroke-linecap:butt;stroke-linejoin:round;stroke-miterlimit:4;stroke-dasharray:none;stroke-opacity:1" />
      <path
         inkscape:export-ydpi="320.43033"
         inkscape:export-xdpi="320.43033"
         inkscape:export-filename="C:\Users\SmeV\Documents\ld36\images\island.png"
         sodipodi:nodetypes="cccscc"
         inkscape:connector-curvature="0"
         id="path5369"
         d="m 199.6661,290.20497 -14.7081,-2.14242 -13.26551,48.79984 c 0,0 11.75778,3.88526 21.50457,3.44999 9.03851,-0.40364 16.49356,-5.92817 16.49356,-5.92817 z"
         style="fill:#aa4400;fill-rule:evenodd;stroke:#000000;stroke-width:2;stroke-linecap:butt;stroke-linejoin:miter;stroke-miterlimit:4;stroke-dasharray:none;stroke-opacity:1" />
      <path
         inkscape:export-ydpi="320"
         inkscape:export-xdpi="320"
         inkscape:export-filename="C:\Users\SmeV\Documents\ld36\images\island.png"
         sodipodi:nodetypes="ccccc"
         inkscape:connector-curvature="0"
         id="path6461"
         d="m 181.57492,299.64338 -6.06091,26.67168 31.31472,-2.31848 -6.31345,-30.51147 z"
         style="fill:url(#linearGradient6469);fill-opacity:1;fill-rule:evenodd;stroke:none;stroke-width:1px;stroke-linecap:butt;stroke-linejoin:miter;stroke-opacity:1" />
      <path
         style="fill:none;fill-rule:evenodd;stroke:#000000;stroke-width:2;stroke-linecap:butt;stroke-linejoin:miter;stroke-miterlimit:4;stroke-dasharray:none;stroke-opacity:1"
         d="m 199.6661,290.20497 -14.7081,-2.14242 -13.26551,48.79984 c 0,0 11.75778,3.88526 21.50457,3.44999 9.03851,-0.40364 16.49356,-5.92817 16.49356,-5.92817 z"
         id="path6488"
         inkscape:connector-curvature="0"
         sodipodi:nodetypes="cccscc"
         inkscape:export-filename="C:\Users\SmeV\Documents\ld36\images\island.png"
         inkscape:export-xdpi="320.43033"
         inkscape:export-ydpi="320.43033" />
      <path
         inkscape:export-ydpi="320.43033"
         inkscape:export-xdpi="320.43033"
         inkscape:export-filename="C:\Users\SmeV\Documents\ld36\images\island.png"
         sodipodi:nodetypes="ccccccccc"
         inkscape:connector-curvature="0"
         id="path5365"
         d="m 183.08208,269.38698 c -18.78008,-7.87524 -28.5703,-1.95678 -45.38419,20.91659 28.3643,-14.33151 36.20613,-7.44143 36.20613,-7.44143 -17.59723,3.99868 -17.67044,25.93436 -14.27672,40.50072 8.27469,-21.56201 32.73053,-27.04189 32.73053,-27.04189 0,0 9.47987,-7.88679 39.21689,13.32657 0,0 4.95557,-24.41586 -25.12122,-32.10388 0,0 8.83625,-8.62806 27.13136,-3.36731 -11.21268,-13.39848 -31.38166,-28.65658 -50.50278,-4.78937 z"
         style="fill:#338000;fill-rule:evenodd;stroke:#000000;stroke-width:2;stroke-linecap:butt;stroke-linejoin:miter;stroke-miterlimit:4;stroke-dasharray:none;stroke-opacity:1" />
      <path
         inkscape:export-ydpi="320"
         inkscape:export-xdpi="320"
         inkscape:export-filename="C:\Users\SmeV\Documents\ld36\images\island.png"
         sodipodi:nodetypes="czcczc"
         inkscape:connector-curvature="0"
         id="path6375-8-7"
         d="m 232.25809,309.48089 c 0,0 3.07834,-6.83828 -7.06022,-20.71963 -10.13857,-13.88134 -32.58873,-10.22244 -32.58873,-10.22244 l 5.77315,21.37852 c 0,0 1.00586,-6.25311 7.14428,-4.73238 6.13844,1.52072 26.73152,14.29593 26.73152,14.29593 z"
         style="fill:url(#linearGradient6383-3-6);fill-opacity:1;fill-rule:evenodd;stroke:none;stroke-width:1px;stroke-linecap:butt;stroke-linejoin:miter;stroke-opacity:1" />
      <path
         inkscape:export-ydpi="320.43033"
         inkscape:export-xdpi="320.43033"
         inkscape:export-filename="C:\Users\SmeV\Documents\ld36\images\island.png"
         sodipodi:nodetypes="cac"
         inkscape:connector-curvature="0"
         id="path5371"
         d="m 175.64399,321.51684 c 0,0 11.41846,2.98331 17.21354,2.64281 4.56188,-0.26803 13.21359,-3.65296 13.21359,-3.65296"
         style="fill:none;fill-rule:evenodd;stroke:#000000;stroke-width:1px;stroke-linecap:butt;stroke-linejoin:miter;stroke-opacity:1" />
      <path
         inkscape:export-ydpi="320.43033"
         inkscape:export-xdpi="320.43033"
         inkscape:export-filename="C:\Users\SmeV\Documents\ld36\images\island.png"
         sodipodi:nodetypes="cac"
         inkscape:connector-curvature="0"
         id="path5371-8"
         d="m 178.11679,311.83003 c 0,0 9.84559,2.03637 14.8424,1.80395 3.93349,-0.18295 11.39344,-2.49347 11.39344,-2.49347"
         style="fill:none;fill-rule:evenodd;stroke:#000000;stroke-width:1;stroke-linecap:butt;stroke-linejoin:miter;stroke-miterlimit:4;stroke-dasharray:none;stroke-opacity:1" />
      <path
         inkscape:export-ydpi="320"
         inkscape:export-xdpi="320"
         inkscape:export-filename="C:\Users\SmeV\Documents\ld36\images\island.png"
         sodipodi:nodetypes="czcczc"
         inkscape:connector-curvature="0"
         id="path6375-8"
         d="m 140.30296,288.8172 c 0,0 7.13865,-11.06342 15.84489,-18.64061 8.70624,-7.57718 26.3694,0.2549 26.3694,0.2549 L 181.48,289.19988 c 0,0 -6.4475,-9.20167 -13.85309,-9.48568 -7.4056,-0.28403 -27.32395,9.103 -27.32395,9.103 z"
         style="fill:url(#linearGradient6383-3);fill-opacity:1;fill-rule:evenodd;stroke:none;stroke-width:1px;stroke-linecap:butt;stroke-linejoin:miter;stroke-opacity:1" />
      <path
         inkscape:export-ydpi="320"
         inkscape:export-xdpi="320"
         inkscape:export-filename="C:\Users\SmeV\Documents\ld36\images\island.png"
         sodipodi:nodetypes="czcczc"
         inkscape:connector-curvature="0"
         id="path6375"
         d="m 159.64286,322.3622 c 0,0 -1.82137,-13.04003 -0.17857,-24.46428 1.6428,-11.42425 16.07142,-15.17857 16.07142,-15.17857 l 15.53572,13.03571 c 0,0 -10.98819,3.6943 -16.78111,8.31659 -5.79293,4.62229 -14.64746,18.29055 -14.64746,18.29055 z"
         style="fill:url(#linearGradient6383);fill-opacity:1;fill-rule:evenodd;stroke:none;stroke-width:1px;stroke-linecap:butt;stroke-linejoin:miter;stroke-opacity:1" />
      <path
         inkscape:export-ydpi="320"
         inkscape:export-xdpi="320"
         inkscape:export-filename="C:\Users\SmeV\Documents\ld36\images\island.png"
         sodipodi:nodetypes="czcczc"
         inkscape:connector-curvature="0"
         id="path6375-8-2"
         d="m 233.26894,273.05026 c 0,0 -10.29871,-9.40485 -21.2585,-14.81127 -10.95982,-5.40642 -28.52441,10.44599 -28.52441,10.44599 l 7.7462,15.92104 c 0,0 10.71607,-7.25131 18.21804,-9.55015 7.50199,-2.29886 23.81867,-2.00561 23.81867,-2.00561 z"
         style="fill:url(#linearGradient6383-3-0);fill-opacity:1;fill-rule:evenodd;stroke:none;stroke-width:1px;stroke-linecap:butt;stroke-linejoin:miter;stroke-opacity:1" />
      <path
         style="fill:none;fill-rule:evenodd;stroke:#000000;stroke-width:2;stroke-linecap:butt;stroke-linejoin:miter;stroke-miterlimit:4;stroke-dasharray:none;stroke-opacity:1"
         d="m 183.08208,269.38698 c -18.78008,-7.87524 -28.5703,-1.95678 -45.38419,20.91659 28.3643,-14.33151 36.20613,-7.44143 36.20613,-7.44143 -17.59723,3.99868 -17.67044,25.93436 -14.27672,40.50072 8.27469,-21.56201 32.73053,-27.04189 32.73053,-27.04189 0,0 9.47987,-7.88679 39.21689,13.32657 0,0 4.95557,-24.41586 -25.12122,-32.10388 0,0 8.83625,-8.62806 27.13136,-3.36731 -11.21268,-13.39848 -31.38166,-28.65658 -50.50278,-4.78937 z"
         id="path6385"
         inkscape:connector-curvature="0"
         sodipodi:nodetypes="ccccccccc"
         inkscape:export-filename="C:\Users\SmeV\Documents\ld36\images\island.png"
         inkscape:export-xdpi="320.43033"
         inkscape:export-ydpi="320.43033" />
    </g>
    <g
       id="g5405"
       transform="translate(-8.8441146,0)">
      <path
         sodipodi:nodetypes="csssc"
         inkscape:connector-curvature="0"
         inkscape:original-d="m 1053.1213,-708.17282 c 0,0 -48.5903,83.32462 -128.12499,93.75 -61.1468,8.01509 -92.4476,-27.12684 -140.625,-65.625 -44.49,-35.55158 -74.3078,-83.44896 -131.25,-84.375 -77.92,-1.2672 -140.62501,87.5 -140.62501,87.5"
         inkscape:path-effect="#path-effect5349"
         id="path5347"
         d="m 1053.1213,-708.17282 c -8.4845,27.02457 -25.802,51.1971 -48.6612,67.92338 -22.85929,16.72628 -51.1388,25.91744 -79.46379,25.82662 -26.42538,-0.0847 -52.41731,-8.05084 -75.90711,-20.15609 -23.48981,-12.10525 -44.66271,-28.26141 -64.71789,-45.46891 -19.99916,-17.15943 -39.06291,-35.48107 -60.29903,-51.08362 -21.23612,-15.60255 -45.0281,-28.55671 -70.95097,-33.29138 -29.78039,-5.43922 -61.50889,0.59613 -87.21241,16.58943 -25.70352,15.9933 -45.13541,41.79108 -53.4126,70.91057"
         style="opacity:1;fill:none;fill-opacity:1;fill-rule:nonzero;stroke:#000000;stroke-width:35;stroke-linecap:round;stroke-linejoin:round;stroke-miterlimit:4;stroke-dasharray:none;stroke-dashoffset:0;stroke-opacity:1" />
      <path
         style="opacity:1;fill:none;fill-opacity:1;fill-rule:nonzero;stroke:#000000;stroke-width:35;stroke-linecap:round;stroke-linejoin:round;stroke-miterlimit:4;stroke-dasharray:none;stroke-dashoffset:0;stroke-opacity:1"
         d="m 3500,-708.17282 c 8.4845,27.02457 25.802,51.1971 48.6612,67.92338 22.8593,16.72628 51.1388,25.91744 79.4638,25.82662 26.4254,-0.0847 52.4173,-8.05084 75.9071,-20.15609 23.4898,-12.10525 44.6627,-28.26141 64.7179,-45.46891 19.9992,-17.15943 39.0629,-35.48107 60.299,-51.08362 21.2361,-15.60255 45.0281,-28.55671 70.951,-33.29138 29.7804,-5.43922 61.5089,0.59613 87.2124,16.58943 25.7035,15.9933 45.1354,41.79108 53.4126,70.91057"
         id="path5355"
         inkscape:path-effect="#path-effect5357"
         inkscape:original-d="m 3500,-708.17282 c 0,0 48.5903,83.32462 128.125,93.75 61.1468,8.01509 92.4476,-27.12684 140.625,-65.625 44.49,-35.55158 74.3078,-83.44896 131.25,-84.375 77.92,-1.2672 140.625,87.5 140.625,87.5"
         inkscape:connector-curvature="0"
         sodipodi:nodetypes="csssc" />
    </g>
  </g>
</svg>
